<svg xmlns="http://www.w3.org/2000/svg" viewBox="0 0 32 32"><rect width="32" height="32" rx="7" fill="#2a78d6"/><polyline points="4.00,16.00 4.50,13.96 5.00,12.13 5.50,10.59 6.00,9.40 6.50,8.60 7.00,8.20 7.50,8.20 8.00,8.58 8.50,9.30 9.00,10.31 9.50,11.54 10.00,12.92 10.50,14.38 11.00,15.83 11.50,17.22 12.00,18.46 12.50,19.52 13.00,20.35 13.50,20.93 14.00,21.23 14.50,21.26 15.00,21.03 15.50,20.57 16.00,19.91 16.50,19.10 17.00,18.18 17.50,17.21 18.00,16.23 18.50,15.29 19.00,14.44 19.50,13.71 20.00,13.13 20.50,12.72 21.00,12.50 21.50,12.46 22.00,12.59 22.50,12.88 23.00,13.31 23.50,13.85 24.00,14.46 24.50,15.11 25.00,15.77 25.50,16.41 26.00,16.99 26.50,17.49 27.00,17.89 27.50,18.18 28.00,18.34" fill="none" stroke="#ffffff" stroke-width="2.4" stroke-linecap="round" stroke-linejoin="round"/></svg>
