<?xml version="1.0" encoding="utf-8" standalone="no"?>
<!DOCTYPE svg PUBLIC "-//W3C//DTD SVG 1.1//EN"
  "http://www.w3.org/Graphics/SVG/1.1/DTD/svg11.dtd">
<svg xmlns:xlink="http://www.w3.org/1999/xlink" width="457.809805pt" height="258.374703pt" viewBox="0 0 457.809805 258.374703" xmlns="http://www.w3.org/2000/svg" version="1.1">
 <metadata>
  <rdf:RDF xmlns:dc="http://purl.org/dc/elements/1.1/" xmlns:cc="http://creativecommons.org/ns#" xmlns:rdf="http://www.w3.org/1999/02/22-rdf-syntax-ns#">
   <cc:Work>
    <dc:type rdf:resource="http://purl.org/dc/dcmitype/StillImage"/>
    <dc:date>2026-07-15T13:02:32.328138</dc:date>
    <dc:format>image/svg+xml</dc:format>
    <dc:creator>
     <cc:Agent>
      <dc:title>Matplotlib v3.11.0, https://matplotlib.org/</dc:title>
     </cc:Agent>
    </dc:creator>
   </cc:Work>
  </rdf:RDF>
 </metadata>
 <defs>
  <style type="text/css">*{stroke-linejoin: round; stroke-linecap: butt}</style>
 </defs>
 <g id="figure_1">
  <g id="patch_1">
   <path d="M 0 258.374703 
L 457.809805 258.374703 
L 457.809805 0 
L 0 0 
z
" style="fill: #fcfcfb"/>
  </g>
  <g id="axes_1">
   <g id="patch_2">
    <path d="M 40.763867 220.927437 
L 442.523867 220.927437 
L 442.523867 21.343437 
L 40.763867 21.343437 
z
" style="fill: #fcfcfb"/>
   </g>
   <g id="matplotlib.axis_1">
    <g id="xtick_1">
     <g id="line2d_1">
      <path d="M 81.970021 220.927437 
L 81.970021 21.343437 
" clip-path="url(#p532b9e7fd9)" style="fill: none; stroke: #e1e0d9; stroke-width: 0.6; stroke-linecap: square"/>
     </g>
     <g id="line2d_2">
      <defs>
       <path id="m3dedf63707" d="M 0 0 
L 0 3.5 
" style="stroke: #898781; stroke-width: 0.8"/>
      </defs>
      <g>
       <use xlink:href="#m3dedf63707" x="81.970021" y="220.927437" style="fill: #898781; stroke: #898781; stroke-width: 0.8"/>
      </g>
     </g>
     <g id="text_1">
      <text style="font-size: 10px; font-family: 'Segoe UI', 'Helvetica Neue', 'Arial', sans-serif; text-anchor: middle; fill: #52514e" x="81.970021" y="235.207711" transform="rotate(-0 81.970021 235.207711)">25</text>
     </g>
    </g>
    <g id="xtick_2">
     <g id="line2d_3">
      <path d="M 133.477713 220.927437 
L 133.477713 21.343437 
" clip-path="url(#p532b9e7fd9)" style="fill: none; stroke: #e1e0d9; stroke-width: 0.6; stroke-linecap: square"/>
     </g>
     <g id="line2d_4">
      <g>
       <use xlink:href="#m3dedf63707" x="133.477713" y="220.927437" style="fill: #898781; stroke: #898781; stroke-width: 0.8"/>
      </g>
     </g>
     <g id="text_2">
      <text style="font-size: 10px; font-family: 'Segoe UI', 'Helvetica Neue', 'Arial', sans-serif; text-anchor: middle; fill: #52514e" x="133.477713" y="235.207711" transform="rotate(-0 133.477713 235.207711)">50</text>
     </g>
    </g>
    <g id="xtick_3">
     <g id="line2d_5">
      <path d="M 184.985406 220.927437 
L 184.985406 21.343437 
" clip-path="url(#p532b9e7fd9)" style="fill: none; stroke: #e1e0d9; stroke-width: 0.6; stroke-linecap: square"/>
     </g>
     <g id="line2d_6">
      <g>
       <use xlink:href="#m3dedf63707" x="184.985406" y="220.927437" style="fill: #898781; stroke: #898781; stroke-width: 0.8"/>
      </g>
     </g>
     <g id="text_3">
      <text style="font-size: 10px; font-family: 'Segoe UI', 'Helvetica Neue', 'Arial', sans-serif; text-anchor: middle; fill: #52514e" x="184.985406" y="235.207711" transform="rotate(-0 184.985406 235.207711)">75</text>
     </g>
    </g>
    <g id="xtick_4">
     <g id="line2d_7">
      <path d="M 236.493098 220.927437 
L 236.493098 21.343437 
" clip-path="url(#p532b9e7fd9)" style="fill: none; stroke: #e1e0d9; stroke-width: 0.6; stroke-linecap: square"/>
     </g>
     <g id="line2d_8">
      <g>
       <use xlink:href="#m3dedf63707" x="236.493098" y="220.927437" style="fill: #898781; stroke: #898781; stroke-width: 0.8"/>
      </g>
     </g>
     <g id="text_4">
      <text style="font-size: 10px; font-family: 'Segoe UI', 'Helvetica Neue', 'Arial', sans-serif; text-anchor: middle; fill: #52514e" x="236.493098" y="235.207711" transform="rotate(-0 236.493098 235.207711)">100</text>
     </g>
    </g>
    <g id="xtick_5">
     <g id="line2d_9">
      <path d="M 288.00079 220.927437 
L 288.00079 21.343437 
" clip-path="url(#p532b9e7fd9)" style="fill: none; stroke: #e1e0d9; stroke-width: 0.6; stroke-linecap: square"/>
     </g>
     <g id="line2d_10">
      <g>
       <use xlink:href="#m3dedf63707" x="288.00079" y="220.927437" style="fill: #898781; stroke: #898781; stroke-width: 0.8"/>
      </g>
     </g>
     <g id="text_5">
      <text style="font-size: 10px; font-family: 'Segoe UI', 'Helvetica Neue', 'Arial', sans-serif; text-anchor: middle; fill: #52514e" x="288.00079" y="235.207711" transform="rotate(-0 288.00079 235.207711)">125</text>
     </g>
    </g>
    <g id="xtick_6">
     <g id="line2d_11">
      <path d="M 339.508483 220.927437 
L 339.508483 21.343437 
" clip-path="url(#p532b9e7fd9)" style="fill: none; stroke: #e1e0d9; stroke-width: 0.6; stroke-linecap: square"/>
     </g>
     <g id="line2d_12">
      <g>
       <use xlink:href="#m3dedf63707" x="339.508483" y="220.927437" style="fill: #898781; stroke: #898781; stroke-width: 0.8"/>
      </g>
     </g>
     <g id="text_6">
      <text style="font-size: 10px; font-family: 'Segoe UI', 'Helvetica Neue', 'Arial', sans-serif; text-anchor: middle; fill: #52514e" x="339.508483" y="235.207711" transform="rotate(-0 339.508483 235.207711)">150</text>
     </g>
    </g>
    <g id="xtick_7">
     <g id="line2d_13">
      <path d="M 391.016175 220.927437 
L 391.016175 21.343437 
" clip-path="url(#p532b9e7fd9)" style="fill: none; stroke: #e1e0d9; stroke-width: 0.6; stroke-linecap: square"/>
     </g>
     <g id="line2d_14">
      <g>
       <use xlink:href="#m3dedf63707" x="391.016175" y="220.927437" style="fill: #898781; stroke: #898781; stroke-width: 0.8"/>
      </g>
     </g>
     <g id="text_7">
      <text style="font-size: 10px; font-family: 'Segoe UI', 'Helvetica Neue', 'Arial', sans-serif; text-anchor: middle; fill: #52514e" x="391.016175" y="235.207711" transform="rotate(-0 391.016175 235.207711)">175</text>
     </g>
    </g>
    <g id="xtick_8">
     <g id="line2d_15">
      <path d="M 442.523867 220.927437 
L 442.523867 21.343437 
" clip-path="url(#p532b9e7fd9)" style="fill: none; stroke: #e1e0d9; stroke-width: 0.6; stroke-linecap: square"/>
     </g>
     <g id="line2d_16">
      <g>
       <use xlink:href="#m3dedf63707" x="442.523867" y="220.927437" style="fill: #898781; stroke: #898781; stroke-width: 0.8"/>
      </g>
     </g>
     <g id="text_8">
      <text style="font-size: 10px; font-family: 'Segoe UI', 'Helvetica Neue', 'Arial', sans-serif; text-anchor: middle; fill: #52514e" x="442.523867" y="235.207711" transform="rotate(-0 442.523867 235.207711)">200</text>
     </g>
    </g>
    <g id="text_9">
     <text style="font-size: 10px; font-family: 'Segoe UI', 'Helvetica Neue', 'Arial', sans-serif; text-anchor: middle; fill: #52514e" x="241.643867" y="248.821578" transform="rotate(-0 241.643867 248.821578)">Excitation frequency (Hz)</text>
    </g>
   </g>
   <g id="matplotlib.axis_2">
    <g id="ytick_1">
     <g id="line2d_17">
      <path d="M 40.763867 220.927437 
L 442.523867 220.927437 
" clip-path="url(#p532b9e7fd9)" style="fill: none; stroke: #e1e0d9; stroke-width: 0.6; stroke-linecap: square"/>
     </g>
     <g id="line2d_18">
      <defs>
       <path id="m8a7c24242e" d="M 0 0 
L -3.5 0 
" style="stroke: #898781; stroke-width: 0.8"/>
      </defs>
      <g>
       <use xlink:href="#m8a7c24242e" x="40.763867" y="220.927437" style="fill: #898781; stroke: #898781; stroke-width: 0.8"/>
      </g>
     </g>
     <g id="text_10">
      <text style="font-size: 10px; font-family: 'Segoe UI', 'Helvetica Neue', 'Arial', sans-serif; text-anchor: end; fill: #52514e" x="33.763867" y="224.567574" transform="rotate(-0 33.763867 224.567574)">0.0</text>
     </g>
    </g>
    <g id="ytick_2">
     <g id="line2d_19">
      <path d="M 40.763867 182.911438 
L 442.523867 182.911438 
" clip-path="url(#p532b9e7fd9)" style="fill: none; stroke: #e1e0d9; stroke-width: 0.6; stroke-linecap: square"/>
     </g>
     <g id="line2d_20">
      <g>
       <use xlink:href="#m8a7c24242e" x="40.763867" y="182.911438" style="fill: #898781; stroke: #898781; stroke-width: 0.8"/>
      </g>
     </g>
     <g id="text_11">
      <text style="font-size: 10px; font-family: 'Segoe UI', 'Helvetica Neue', 'Arial', sans-serif; text-anchor: end; fill: #52514e" x="33.763867" y="186.551574" transform="rotate(-0 33.763867 186.551574)">0.2</text>
     </g>
    </g>
    <g id="ytick_3">
     <g id="line2d_21">
      <path d="M 40.763867 144.895438 
L 442.523867 144.895438 
" clip-path="url(#p532b9e7fd9)" style="fill: none; stroke: #e1e0d9; stroke-width: 0.6; stroke-linecap: square"/>
     </g>
     <g id="line2d_22">
      <g>
       <use xlink:href="#m8a7c24242e" x="40.763867" y="144.895438" style="fill: #898781; stroke: #898781; stroke-width: 0.8"/>
      </g>
     </g>
     <g id="text_12">
      <text style="font-size: 10px; font-family: 'Segoe UI', 'Helvetica Neue', 'Arial', sans-serif; text-anchor: end; fill: #52514e" x="33.763867" y="148.535574" transform="rotate(-0 33.763867 148.535574)">0.4</text>
     </g>
    </g>
    <g id="ytick_4">
     <g id="line2d_23">
      <path d="M 40.763867 106.879437 
L 442.523867 106.879437 
" clip-path="url(#p532b9e7fd9)" style="fill: none; stroke: #e1e0d9; stroke-width: 0.6; stroke-linecap: square"/>
     </g>
     <g id="line2d_24">
      <g>
       <use xlink:href="#m8a7c24242e" x="40.763867" y="106.879437" style="fill: #898781; stroke: #898781; stroke-width: 0.8"/>
      </g>
     </g>
     <g id="text_13">
      <text style="font-size: 10px; font-family: 'Segoe UI', 'Helvetica Neue', 'Arial', sans-serif; text-anchor: end; fill: #52514e" x="33.763867" y="110.519574" transform="rotate(-0 33.763867 110.519574)">0.6</text>
     </g>
    </g>
    <g id="ytick_5">
     <g id="line2d_25">
      <path d="M 40.763867 68.863438 
L 442.523867 68.863438 
" clip-path="url(#p532b9e7fd9)" style="fill: none; stroke: #e1e0d9; stroke-width: 0.6; stroke-linecap: square"/>
     </g>
     <g id="line2d_26">
      <g>
       <use xlink:href="#m8a7c24242e" x="40.763867" y="68.863438" style="fill: #898781; stroke: #898781; stroke-width: 0.8"/>
      </g>
     </g>
     <g id="text_14">
      <text style="font-size: 10px; font-family: 'Segoe UI', 'Helvetica Neue', 'Arial', sans-serif; text-anchor: end; fill: #52514e" x="33.763867" y="72.503574" transform="rotate(-0 33.763867 72.503574)">0.8</text>
     </g>
    </g>
    <g id="ytick_6">
     <g id="line2d_27">
      <path d="M 40.763867 30.847438 
L 442.523867 30.847438 
" clip-path="url(#p532b9e7fd9)" style="fill: none; stroke: #e1e0d9; stroke-width: 0.6; stroke-linecap: square"/>
     </g>
     <g id="line2d_28">
      <g>
       <use xlink:href="#m8a7c24242e" x="40.763867" y="30.847438" style="fill: #898781; stroke: #898781; stroke-width: 0.8"/>
      </g>
     </g>
     <g id="text_15">
      <text style="font-size: 10px; font-family: 'Segoe UI', 'Helvetica Neue', 'Arial', sans-serif; text-anchor: end; fill: #52514e" x="33.763867" y="34.487574" transform="rotate(-0 33.763867 34.487574)">1.0</text>
     </g>
    </g>
    <g id="text_16">
     <text style="font-size: 10px; font-family: 'Segoe UI', 'Helvetica Neue', 'Arial', sans-serif; text-anchor: middle; fill: #52514e" x="14.709375" y="121.135437" transform="rotate(-90 14.709375 121.135437)">Residual vibration (fraction)</text>
    </g>
   </g>
   <g id="FillBetweenPolyCollection_1">
    <defs>
     <path id="m15ba5df2d7" d="M 40.763867 -37.447266 
L 40.763867 -38.069914 
L 41.031886 -38.054406 
L 41.299905 -38.038898 
L 41.567923 -38.02339 
L 41.835942 -38.007883 
L 42.103961 -37.992375 
L 42.371979 -37.976867 
L 42.639998 -37.961359 
L 42.908017 -37.945851 
L 43.176035 -37.930343 
L 43.444054 -37.923782 
L 43.712073 -37.919812 
L 43.980091 -37.915842 
L 44.24811 -37.911872 
L 44.516129 -37.907902 
L 44.784147 -37.903933 
L 45.052166 -37.899963 
L 45.320185 -37.895993 
L 45.588203 -37.892023 
L 45.856222 -37.888053 
L 46.124241 -37.884083 
L 46.392259 -37.880113 
L 46.660278 -37.882004 
L 46.928297 -37.89035 
L 47.196315 -37.898695 
L 47.464334 -37.907041 
L 47.732353 -37.915387 
L 48.000372 -37.923732 
L 48.26839 -37.932078 
L 48.536409 -37.940423 
L 48.804428 -37.948769 
L 49.072446 -37.957114 
L 49.340465 -37.96546 
L 49.608484 -37.973806 
L 49.876502 -37.982206 
L 50.144521 -37.990863 
L 50.41254 -37.999521 
L 50.680558 -38.008178 
L 50.948577 -38.016835 
L 51.216596 -38.025492 
L 51.484614 -38.03415 
L 51.752633 -38.042807 
L 52.020652 -38.051464 
L 52.28867 -38.060122 
L 52.556689 -38.068779 
L 52.824708 -38.077436 
L 53.092726 -38.08743 
L 53.360745 -38.098158 
L 53.628764 -38.108885 
L 53.896782 -38.119613 
L 54.164801 -38.13034 
L 54.43282 -38.141068 
L 54.700839 -38.151795 
L 54.968857 -38.162523 
L 55.236876 -38.17325 
L 55.504895 -38.183978 
L 55.772913 -38.194705 
L 56.040932 -38.205433 
L 56.308951 -38.216649 
L 56.576969 -38.228788 
L 56.844988 -38.240927 
L 57.113007 -38.253066 
L 57.381025 -38.265205 
L 57.649044 -38.277344 
L 57.917063 -38.289483 
L 58.185081 -38.301622 
L 58.4531 -38.313761 
L 58.721119 -38.3259 
L 58.989137 -38.338039 
L 59.257156 -38.350178 
L 59.525175 -38.369309 
L 59.793193 -38.390023 
L 60.061212 -38.410737 
L 60.329231 -38.431451 
L 60.597249 -38.452164 
L 60.865268 -38.472878 
L 61.133287 -38.493592 
L 61.401305 -38.514306 
L 61.669324 -38.53502 
L 61.937343 -38.555734 
L 62.205362 -38.576448 
L 62.47338 -38.597162 
L 62.741399 -38.618349 
L 63.009418 -38.639981 
L 63.277436 -38.661612 
L 63.545455 -38.683244 
L 63.813474 -38.704875 
L 64.081492 -38.726507 
L 64.349511 -38.748138 
L 64.61753 -38.769769 
L 64.885548 -38.791401 
L 65.153567 -38.813032 
L 65.421586 -38.834664 
L 65.689604 -38.856295 
L 65.957623 -38.881485 
L 66.225642 -38.919558 
L 66.49366 -38.957631 
L 66.761679 -38.995704 
L 67.029698 -39.033778 
L 67.297716 -39.071851 
L 67.565735 -39.109924 
L 67.833754 -39.147997 
L 68.101772 -39.186071 
L 68.369791 -39.224144 
L 68.63781 -39.262217 
L 68.905828 -39.30029 
L 69.173847 -39.344631 
L 69.441866 -39.391847 
L 69.709885 -39.439062 
L 69.977903 -39.486277 
L 70.245922 -39.533492 
L 70.513941 -39.580707 
L 70.781959 -39.627922 
L 71.049978 -39.675137 
L 71.317997 -39.722352 
L 71.586015 -39.769567 
L 71.854034 -39.816783 
L 72.122053 -39.863998 
L 72.390071 -39.899812 
L 72.65809 -39.917503 
L 72.926109 -39.935194 
L 73.194127 -39.952885 
L 73.462146 -39.970576 
L 73.730165 -39.988267 
L 73.998183 -40.005958 
L 74.266202 -40.023649 
L 74.534221 -40.04134 
L 74.802239 -40.059031 
L 75.070258 -40.076721 
L 75.338277 -40.094412 
L 75.606295 -40.06905 
L 75.874314 -40.036409 
L 76.142333 -40.003768 
L 76.410352 -39.971126 
L 76.67837 -39.938485 
L 76.946389 -39.905844 
L 77.214408 -39.873203 
L 77.482426 -39.840561 
L 77.750445 -39.80792 
L 78.018464 -39.775279 
L 78.286482 -39.742638 
L 78.554501 -39.709996 
L 78.82252 -39.698149 
L 79.090538 -39.702912 
L 79.358557 -39.707676 
L 79.626576 -39.71244 
L 79.894594 -39.717204 
L 80.162613 -39.721968 
L 80.430632 -39.726732 
L 80.69865 -39.731496 
L 80.966669 -39.736259 
L 81.234688 -39.741023 
L 81.502706 -39.745787 
L 81.770725 -39.750551 
L 82.038744 -39.738458 
L 82.306762 -39.677481 
L 82.574781 -39.616503 
L 82.8428 -39.555526 
L 83.110818 -39.494549 
L 83.378837 -39.433571 
L 83.646856 -39.372594 
L 83.914875 -39.311617 
L 84.182893 -39.250639 
L 84.450912 -39.189662 
L 84.718931 -39.128685 
L 84.986949 -39.067707 
L 85.254968 -39.05857 
L 85.522987 -39.069033 
L 85.791005 -39.079495 
L 86.059024 -39.089958 
L 86.327043 -39.100421 
L 86.595061 -39.110884 
L 86.86308 -39.121347 
L 87.131099 -39.13181 
L 87.399117 -39.142272 
L 87.667136 -39.152735 
L 87.935155 -39.163198 
L 88.203173 -39.173661 
L 88.471192 -39.20306 
L 88.739211 -39.257959 
L 89.007229 -39.312857 
L 89.275248 -39.367756 
L 89.543267 -39.422654 
L 89.811285 -39.477552 
L 90.079304 -39.532451 
L 90.347323 -39.587349 
L 90.615342 -39.642248 
L 90.88336 -39.697146 
L 91.151379 -39.752045 
L 91.419398 -39.806943 
L 91.687416 -39.873035 
L 91.955435 -39.940435 
L 92.223454 -40.007835 
L 92.491472 -40.075234 
L 92.759491 -40.142634 
L 93.02751 -40.210034 
L 93.295528 -40.277434 
L 93.563547 -40.344833 
L 93.831566 -40.412233 
L 94.099584 -40.479633 
L 94.367603 -40.547032 
L 94.635622 -40.614432 
L 94.90364 -40.700659 
L 95.171659 -40.799653 
L 95.439678 -40.898647 
L 95.707696 -40.997641 
L 95.975715 -41.096635 
L 96.243734 -41.19563 
L 96.511752 -41.294624 
L 96.779771 -41.393618 
L 97.04779 -41.492612 
L 97.315808 -41.591606 
L 97.583827 -41.6906 
L 97.851846 -41.790409 
L 98.119865 -41.901919 
L 98.387883 -42.013428 
L 98.655902 -42.124938 
L 98.923921 -42.236447 
L 99.191939 -42.347957 
L 99.459958 -42.459466 
L 99.727977 -42.570976 
L 99.995995 -42.682486 
L 100.264014 -42.793995 
L 100.532033 -42.905505 
L 100.800051 -43.017014 
L 101.06807 -43.128524 
L 101.336089 -43.295825 
L 101.604107 -43.480204 
L 101.872126 -43.664583 
L 102.140145 -43.848962 
L 102.408163 -44.03334 
L 102.676182 -44.217719 
L 102.944201 -44.402098 
L 103.212219 -44.586477 
L 103.480238 -44.770856 
L 103.748257 -44.955235 
L 104.016275 -45.139614 
L 104.284294 -45.323993 
L 104.552313 -45.577794 
L 104.820331 -45.911099 
L 105.08835 -46.244405 
L 105.356369 -46.57771 
L 105.624388 -46.911015 
L 105.892406 -47.24432 
L 106.160425 -47.577626 
L 106.428444 -47.910931 
L 106.696462 -48.244236 
L 106.964481 -48.577542 
L 107.2325 -48.910847 
L 107.500518 -49.244152 
L 107.768537 -49.785725 
L 108.036556 -50.341685 
L 108.304574 -50.897644 
L 108.572593 -51.453604 
L 108.840612 -52.009564 
L 109.10863 -52.565523 
L 109.376649 -53.121483 
L 109.644668 -53.677443 
L 109.912686 -54.233402 
L 110.180705 -54.789362 
L 110.448724 -55.345322 
L 110.716742 -55.901281 
L 110.984761 -57.004038 
L 111.25278 -58.419879 
L 111.520798 -59.835721 
L 111.788817 -61.251563 
L 112.056836 -62.667404 
L 112.324855 -64.083246 
L 112.592873 -65.499088 
L 112.860892 -66.914929 
L 113.128911 -68.330771 
L 113.396929 -69.746612 
L 113.664948 -71.162454 
L 113.932967 -72.808587 
L 114.200985 -76.415003 
L 114.469004 -80.021418 
L 114.737023 -83.627834 
L 115.005041 -87.23425 
L 115.27306 -90.840665 
L 115.541079 -94.447081 
L 115.809097 -98.053497 
L 116.077116 -101.659912 
L 116.345135 -105.266328 
L 116.613153 -108.872744 
L 116.881172 -112.479159 
L 117.149191 -116.085575 
L 117.417209 -121.771596 
L 117.685228 -127.959316 
L 117.953247 -134.147036 
L 118.221265 -140.334756 
L 118.489284 -146.522476 
L 118.757303 -152.710196 
L 119.025321 -158.897916 
L 119.29334 -165.085636 
L 119.561359 -171.273356 
L 119.829378 -177.461076 
L 120.097396 -183.648796 
L 120.365415 -189.836516 
L 120.633434 -194.412632 
L 120.901452 -197.416332 
L 121.169471 -200.420032 
L 121.43749 -203.423731 
L 121.705508 -206.427431 
L 121.973527 -209.431131 
L 122.241546 -212.43483 
L 122.509564 -215.43853 
L 122.777583 -218.442229 
L 123.045602 -221.445929 
L 123.31362 -224.449629 
L 123.581639 -227.453328 
L 123.849658 -224.119765 
L 124.117676 -220.62627 
L 124.385695 -217.132775 
L 124.653714 -213.639281 
L 124.921732 -210.145786 
L 125.189751 -206.652291 
L 125.45777 -203.158797 
L 125.725788 -199.665302 
L 125.993807 -196.171807 
L 126.261826 -192.678313 
L 126.529845 -189.184818 
L 126.797863 -185.691323 
L 127.065882 -181.267006 
L 127.333901 -176.396345 
L 127.601919 -171.525684 
L 127.869938 -166.655023 
L 128.137957 -161.784362 
L 128.405975 -156.913702 
L 128.673994 -152.043041 
L 128.942013 -147.17238 
L 129.210031 -142.301719 
L 129.47805 -137.431058 
L 129.746069 -132.560397 
L 130.014087 -127.956691 
L 130.282106 -124.925467 
L 130.550125 -121.894242 
L 130.818143 -118.863018 
L 131.086162 -115.831794 
L 131.354181 -112.80057 
L 131.622199 -109.769346 
L 131.890218 -106.738122 
L 132.158237 -103.706898 
L 132.426255 -100.675673 
L 132.694274 -97.644449 
L 132.962293 -94.613225 
L 133.230311 -91.582001 
L 133.49833 -89.765299 
L 133.766349 -88.170289 
L 134.034368 -86.575279 
L 134.302386 -84.98027 
L 134.570405 -83.38526 
L 134.838424 -81.79025 
L 135.106442 -80.195241 
L 135.374461 -78.600231 
L 135.64248 -77.005221 
L 135.910498 -75.410212 
L 136.178517 -73.815202 
L 136.446536 -72.220192 
L 136.714554 -70.996758 
L 136.982573 -70.082097 
L 137.250592 -69.167437 
L 137.51861 -68.252777 
L 137.786629 -67.338116 
L 138.054648 -66.423456 
L 138.322666 -65.508795 
L 138.590685 -64.594135 
L 138.858704 -63.679475 
L 139.126722 -62.764814 
L 139.394741 -61.850154 
L 139.66276 -60.941603 
L 139.930778 -60.424108 
L 140.198797 -59.906612 
L 140.466816 -59.389116 
L 140.734834 -58.87162 
L 141.002853 -58.354124 
L 141.270872 -57.836628 
L 141.538891 -57.319132 
L 141.806909 -56.801636 
L 142.074928 -56.28414 
L 142.342947 -55.766644 
L 142.610965 -55.249148 
L 142.878984 -54.731652 
L 143.147003 -54.485467 
L 143.415021 -54.34695 
L 143.68304 -54.208434 
L 143.951059 -54.069917 
L 144.219077 -53.931401 
L 144.487096 -53.792884 
L 144.755115 -53.654368 
L 145.023133 -53.515851 
L 145.291152 -53.377335 
L 145.559171 -53.238818 
L 145.827189 -53.100302 
L 146.095208 -52.976094 
L 146.363227 -52.91487 
L 146.631245 -52.853646 
L 146.899264 -52.792421 
L 147.167283 -52.731197 
L 147.435301 -52.669972 
L 147.70332 -52.608748 
L 147.971339 -52.547524 
L 148.239358 -52.486299 
L 148.507376 -52.425075 
L 148.775395 -52.363851 
L 149.043414 -52.302626 
L 149.311432 -52.241402 
L 149.579451 -52.054699 
L 149.84747 -51.851794 
L 150.115488 -51.648889 
L 150.383507 -51.445984 
L 150.651526 -51.243079 
L 150.919544 -51.040174 
L 151.187563 -50.837269 
L 151.455582 -50.634364 
L 151.7236 -50.431459 
L 151.991619 -50.228554 
L 152.259638 -50.025649 
L 152.527656 -49.822744 
L 152.795675 -49.626031 
L 153.063694 -49.433689 
L 153.331712 -49.241346 
L 153.599731 -49.049004 
L 153.86775 -48.856662 
L 154.135768 -48.66432 
L 154.403787 -48.471978 
L 154.671806 -48.279636 
L 154.939824 -48.087293 
L 155.207843 -47.894951 
L 155.475862 -47.702609 
L 155.743881 -47.513688 
L 156.011899 -47.383123 
L 156.279918 -47.252559 
L 156.547937 -47.121994 
L 156.815955 -46.991429 
L 157.083974 -46.860864 
L 157.351993 -46.730299 
L 157.620011 -46.599734 
L 157.88803 -46.469169 
L 158.156049 -46.338604 
L 158.424067 -46.208039 
L 158.692086 -46.077474 
L 158.960105 -45.946909 
L 159.228123 -45.842342 
L 159.496142 -45.746171 
L 159.764161 -45.65 
L 160.032179 -45.553829 
L 160.300198 -45.457658 
L 160.568217 -45.361487 
L 160.836235 -45.265316 
L 161.104254 -45.169145 
L 161.372273 -45.072974 
L 161.640291 -44.976803 
L 161.90831 -44.880631 
L 162.176329 -44.788793 
L 162.444348 -44.711865 
L 162.712366 -44.634938 
L 162.980385 -44.55801 
L 163.248404 -44.481083 
L 163.516422 -44.404155 
L 163.784441 -44.327228 
L 164.05246 -44.2503 
L 164.320478 -44.173373 
L 164.588497 -44.096445 
L 164.856516 -44.019518 
L 165.124534 -43.942591 
L 165.392553 -43.865663 
L 165.660572 -43.800821 
L 165.92859 -43.73695 
L 166.196609 -43.673079 
L 166.464628 -43.609208 
L 166.732646 -43.545337 
L 167.000665 -43.481466 
L 167.268684 -43.417596 
L 167.536702 -43.353725 
L 167.804721 -43.289854 
L 168.07274 -43.225983 
L 168.340758 -43.162112 
L 168.608777 -43.098241 
L 168.876796 -43.018741 
L 169.144814 -42.92991 
L 169.412833 -42.841078 
L 169.680852 -42.752247 
L 169.948871 -42.663416 
L 170.216889 -42.574585 
L 170.484908 -42.485753 
L 170.752927 -42.396922 
L 171.020945 -42.308091 
L 171.288964 -42.21926 
L 171.556983 -42.130429 
L 171.825001 -42.052528 
L 172.09302 -42.078288 
L 172.361039 -42.104048 
L 172.629057 -42.129808 
L 172.897076 -42.155568 
L 173.165095 -42.181328 
L 173.433113 -42.207088 
L 173.701132 -42.232848 
L 173.969151 -42.258609 
L 174.237169 -42.284369 
L 174.505188 -42.310129 
L 174.773207 -42.335889 
L 175.041225 -42.361649 
L 175.309244 -42.710973 
L 175.577263 -43.143272 
L 175.845281 -43.575571 
L 176.1133 -44.007871 
L 176.381319 -44.44017 
L 176.649338 -44.87247 
L 176.917356 -45.304769 
L 177.185375 -45.737068 
L 177.453394 -46.169368 
L 177.721412 -46.601667 
L 177.989431 -47.033966 
L 178.25745 -47.501344 
L 178.525468 -48.065949 
L 178.793487 -48.630554 
L 179.061506 -49.195159 
L 179.329524 -49.759765 
L 179.597543 -50.32437 
L 179.865562 -50.888975 
L 180.13358 -51.45358 
L 180.401599 -52.018185 
L 180.669618 -52.582791 
L 180.937636 -53.147396 
L 181.205655 -53.712001 
L 181.473674 -54.276606 
L 181.741692 -54.88142 
L 182.009711 -55.487665 
L 182.27773 -56.09391 
L 182.545748 -56.700155 
L 182.813767 -57.3064 
L 183.081786 -57.912644 
L 183.349804 -58.518889 
L 183.617823 -59.125134 
L 183.885842 -59.731379 
L 184.153861 -60.337624 
L 184.421879 -60.943869 
L 184.689898 -61.550113 
L 184.957917 -62.442048 
L 185.225935 -63.477158 
L 185.493954 -64.512267 
L 185.761973 -65.547377 
L 186.029991 -66.582486 
L 186.29801 -67.617596 
L 186.566029 -68.652705 
L 186.834047 -69.687815 
L 187.102066 -70.722924 
L 187.370085 -71.758034 
L 187.638103 -72.793143 
L 187.906122 -73.844576 
L 188.174141 -75.000252 
L 188.442159 -76.155928 
L 188.710178 -77.311605 
L 188.978197 -78.467281 
L 189.246215 -79.622957 
L 189.514234 -80.778633 
L 189.782253 -81.93431 
L 190.050271 -83.089986 
L 190.31829 -84.245662 
L 190.586309 -85.401338 
L 190.854327 -86.557015 
L 191.122346 -87.712691 
L 191.390365 -88.408902 
L 191.658384 -89.014912 
L 191.926402 -89.620921 
L 192.194421 -90.226931 
L 192.46244 -90.832941 
L 192.730458 -91.43895 
L 192.998477 -92.04496 
L 193.266496 -92.650969 
L 193.534514 -93.256979 
L 193.802533 -93.862988 
L 194.070552 -94.468998 
L 194.33857 -94.887405 
L 194.606589 -94.878583 
L 194.874608 -94.869761 
L 195.142626 -94.860939 
L 195.410645 -94.852117 
L 195.678664 -94.843295 
L 195.946682 -94.834473 
L 196.214701 -94.825651 
L 196.48272 -94.81683 
L 196.750738 -94.808008 
L 197.018757 -94.799186 
L 197.286776 -94.790364 
L 197.554794 -94.778785 
L 197.822813 -94.281226 
L 198.090832 -93.783668 
L 198.358851 -93.28611 
L 198.626869 -92.788551 
L 198.894888 -92.290993 
L 199.162907 -91.793435 
L 199.430925 -91.295876 
L 199.698944 -90.798318 
L 199.966963 -90.30076 
L 200.234981 -89.803201 
L 200.503 -89.305643 
L 200.771019 -88.808085 
L 201.039037 -88.174138 
L 201.307056 -87.483438 
L 201.575075 -86.792738 
L 201.843093 -86.102037 
L 202.111112 -85.411337 
L 202.379131 -84.720637 
L 202.647149 -84.029936 
L 202.915168 -83.339236 
L 203.183187 -82.648536 
L 203.451205 -81.957835 
L 203.719224 -81.267135 
L 203.987243 -80.653012 
L 204.255261 -80.39894 
L 204.52328 -80.144868 
L 204.791299 -79.890795 
L 205.059317 -79.636723 
L 205.327336 -79.382651 
L 205.595355 -79.128578 
L 205.863374 -78.874506 
L 206.131392 -78.620434 
L 206.399411 -78.366361 
L 206.66743 -78.112289 
L 206.935448 -77.858217 
L 207.203467 -77.604144 
L 207.471486 -77.356666 
L 207.739504 -77.110122 
L 208.007523 -76.863577 
L 208.275542 -76.617033 
L 208.54356 -76.370489 
L 208.811579 -76.123944 
L 209.079598 -75.8774 
L 209.347616 -75.630856 
L 209.615635 -75.384312 
L 209.883654 -75.137767 
L 210.151672 -74.891223 
L 210.419691 -74.615287 
L 210.68771 -74.283582 
L 210.955728 -73.951876 
L 211.223747 -73.620171 
L 211.491766 -73.288465 
L 211.759784 -72.956759 
L 212.027803 -72.625054 
L 212.295822 -72.293348 
L 212.563841 -71.961643 
L 212.831859 -71.629937 
L 213.099878 -71.298232 
L 213.367897 -70.966526 
L 213.635915 -70.632695 
L 213.903934 -70.254409 
L 214.171953 -69.876124 
L 214.439971 -69.497838 
L 214.70799 -69.119553 
L 214.976009 -68.741267 
L 215.244027 -68.362982 
L 215.512046 -67.984696 
L 215.780065 -67.606411 
L 216.048083 -67.228125 
L 216.316102 -66.84984 
L 216.584121 -66.471554 
L 216.852139 -66.072738 
L 217.120158 -65.654578 
L 217.388177 -65.236417 
L 217.656195 -64.818256 
L 217.924214 -64.400095 
L 218.192233 -63.981935 
L 218.460251 -63.563774 
L 218.72827 -63.145613 
L 218.996289 -62.727452 
L 219.264307 -62.309292 
L 219.532326 -61.891131 
L 219.800345 -61.47297 
L 220.068364 -61.039305 
L 220.336382 -60.549157 
L 220.604401 -60.059009 
L 220.87242 -59.568861 
L 221.140438 -59.078713 
L 221.408457 -58.588565 
L 221.676476 -58.098417 
L 221.944494 -57.608269 
L 222.212513 -57.118122 
L 222.480532 -56.627974 
L 222.74855 -56.137826 
L 223.016569 -55.647678 
L 223.284588 -55.15753 
L 223.552606 -54.786902 
L 223.820625 -54.427248 
L 224.088644 -54.067595 
L 224.356662 -53.707941 
L 224.624681 -53.348288 
L 224.8927 -52.988634 
L 225.160718 -52.628981 
L 225.428737 -52.269327 
L 225.696756 -51.909673 
L 225.964774 -51.55002 
L 226.232793 -51.190366 
L 226.500812 -50.875452 
L 226.76883 -50.631966 
L 227.036849 -50.38848 
L 227.304868 -50.144994 
L 227.572887 -49.901508 
L 227.840905 -49.658022 
L 228.108924 -49.414536 
L 228.376943 -49.17105 
L 228.644961 -48.927564 
L 228.91298 -48.684078 
L 229.180999 -48.440592 
L 229.449017 -48.197106 
L 229.717036 -47.960757 
L 229.985055 -47.800597 
L 230.253073 -47.640437 
L 230.521092 -47.480278 
L 230.789111 -47.320118 
L 231.057129 -47.159958 
L 231.325148 -46.999799 
L 231.593167 -46.839639 
L 231.861185 -46.679479 
L 232.129204 -46.51932 
L 232.397223 -46.35916 
L 232.665241 -46.199 
L 232.93326 -46.09315 
L 233.201279 -46.030867 
L 233.469297 -45.968583 
L 233.737316 -45.9063 
L 234.005335 -45.844017 
L 234.273354 -45.781734 
L 234.541372 -45.719451 
L 234.809391 -45.657168 
L 235.07741 -45.594885 
L 235.345428 -45.532602 
L 235.613447 -45.470319 
L 235.881466 -45.408036 
L 236.149484 -45.349989 
L 236.417503 -45.304291 
L 236.685522 -45.258594 
L 236.95354 -45.212896 
L 237.221559 -45.167198 
L 237.489578 -45.1215 
L 237.757596 -45.075803 
L 238.025615 -45.030105 
L 238.293634 -44.984407 
L 238.561652 -44.938709 
L 238.829671 -44.893012 
L 239.09769 -44.847314 
L 239.365708 -44.801616 
L 239.633727 -44.772795 
L 239.901746 -44.744753 
L 240.169764 -44.716711 
L 240.437783 -44.688669 
L 240.705802 -44.660627 
L 240.97382 -44.632585 
L 241.241839 -44.604543 
L 241.509858 -44.576501 
L 241.777877 -44.548459 
L 242.045895 -44.520417 
L 242.313914 -44.492375 
L 242.581933 -44.466728 
L 242.849951 -44.44432 
L 243.11797 -44.421913 
L 243.385989 -44.399505 
L 243.654007 -44.377097 
L 243.922026 -44.354689 
L 244.190045 -44.332282 
L 244.458063 -44.309874 
L 244.726082 -44.287466 
L 244.994101 -44.265058 
L 245.262119 -44.24265 
L 245.530138 -44.220243 
L 245.798157 -44.199752 
L 246.066175 -44.1926 
L 246.334194 -44.185448 
L 246.602213 -44.178297 
L 246.870231 -44.171145 
L 247.13825 -44.163993 
L 247.406269 -44.156842 
L 247.674287 -44.14969 
L 247.942306 -44.142538 
L 248.210325 -44.135387 
L 248.478344 -44.128235 
L 248.746362 -44.121083 
L 249.014381 -44.108845 
L 249.2824 -44.093142 
L 249.550418 -44.077439 
L 249.818437 -44.061735 
L 250.086456 -44.046032 
L 250.354474 -44.030329 
L 250.622493 -44.014626 
L 250.890512 -43.998923 
L 251.15853 -43.98322 
L 251.426549 -43.967517 
L 251.694568 -43.951814 
L 251.962586 -43.936111 
L 252.230605 -43.923483 
L 252.498624 -43.918189 
L 252.766642 -43.912896 
L 253.034661 -43.907603 
L 253.30268 -43.90231 
L 253.570698 -43.897017 
L 253.838717 -43.891724 
L 254.106736 -43.88643 
L 254.374754 -43.881137 
L 254.642773 -43.875844 
L 254.910792 -43.870551 
L 255.17881 -43.865258 
L 255.446829 -43.859965 
L 255.714848 -43.868565 
L 255.982867 -43.877222 
L 256.250885 -43.885879 
L 256.518904 -43.894536 
L 256.786923 -43.903194 
L 257.054941 -43.911851 
L 257.32296 -43.920508 
L 257.590979 -43.929166 
L 257.858997 -43.937823 
L 258.127016 -43.94648 
L 258.395035 -43.955137 
L 258.663053 -43.956403 
L 258.931072 -43.949169 
L 259.199091 -43.941935 
L 259.467109 -43.934701 
L 259.735128 -43.927467 
L 260.003147 -43.920233 
L 260.271165 -43.912999 
L 260.539184 -43.905765 
L 260.807203 -43.898531 
L 261.075221 -43.891297 
L 261.34324 -43.884063 
L 261.611259 -43.876829 
L 261.879277 -43.870326 
L 262.147296 -43.867503 
L 262.415315 -43.86468 
L 262.683333 -43.861857 
L 262.951352 -43.859034 
L 263.219371 -43.856211 
L 263.48739 -43.853388 
L 263.755408 -43.850565 
L 264.023427 -43.847742 
L 264.291446 -43.844919 
L 264.559464 -43.842096 
L 264.827483 -43.839273 
L 265.095502 -43.855604 
L 265.36352 -43.882952 
L 265.631539 -43.9103 
L 265.899558 -43.937648 
L 266.167576 -43.964997 
L 266.435595 -43.992345 
L 266.703614 -44.019693 
L 266.971632 -44.047041 
L 267.239651 -44.074389 
L 267.50767 -44.101737 
L 267.775688 -44.129085 
L 268.043707 -44.156433 
L 268.311726 -44.185142 
L 268.579744 -44.216548 
L 268.847763 -44.247954 
L 269.115782 -44.279361 
L 269.3838 -44.310767 
L 269.651819 -44.342173 
L 269.919838 -44.373579 
L 270.187857 -44.404985 
L 270.455875 -44.436391 
L 270.723894 -44.467798 
L 270.991913 -44.499204 
L 271.259931 -44.53061 
L 271.52795 -44.562193 
L 271.795969 -44.598515 
L 272.063987 -44.634838 
L 272.332006 -44.671161 
L 272.600025 -44.707484 
L 272.868043 -44.743807 
L 273.136062 -44.78013 
L 273.404081 -44.816453 
L 273.672099 -44.852776 
L 273.940118 -44.889099 
L 274.208137 -44.925422 
L 274.476155 -44.961745 
L 274.744174 -45.020093 
L 275.012193 -45.10002 
L 275.280211 -45.179947 
L 275.54823 -45.259874 
L 275.816249 -45.339801 
L 276.084267 -45.419728 
L 276.352286 -45.499655 
L 276.620305 -45.579582 
L 276.888323 -45.659509 
L 277.156342 -45.739436 
L 277.424361 -45.819363 
L 277.69238 -45.89929 
L 277.960398 -45.984531 
L 278.228417 -46.0903 
L 278.496436 -46.196069 
L 278.764454 -46.301839 
L 279.032473 -46.407608 
L 279.300492 -46.513378 
L 279.56851 -46.619147 
L 279.836529 -46.724916 
L 280.104548 -46.830686 
L 280.372566 -46.936455 
L 280.640585 -47.042224 
L 280.908604 -47.147994 
L 281.176622 -47.237752 
L 281.444641 -47.319796 
L 281.71266 -47.40184 
L 281.980678 -47.483884 
L 282.248697 -47.565929 
L 282.516716 -47.647973 
L 282.784734 -47.730017 
L 283.052753 -47.812061 
L 283.320772 -47.894105 
L 283.58879 -47.976149 
L 283.856809 -48.058194 
L 284.124828 -48.140238 
L 284.392847 -48.233542 
L 284.660865 -48.34558 
L 284.928884 -48.457619 
L 285.196903 -48.569658 
L 285.464921 -48.681697 
L 285.73294 -48.793736 
L 286.000959 -48.905775 
L 286.268977 -49.017813 
L 286.536996 -49.129852 
L 286.805015 -49.241891 
L 287.073033 -49.35393 
L 287.341052 -49.465969 
L 287.609071 -49.580817 
L 287.877089 -49.729873 
L 288.145108 -49.878929 
L 288.413127 -50.027985 
L 288.681145 -50.17704 
L 288.949164 -50.326096 
L 289.217183 -50.475152 
L 289.485201 -50.624208 
L 289.75322 -50.773263 
L 290.021239 -50.922319 
L 290.289257 -51.071375 
L 290.557276 -51.220431 
L 290.825295 -51.409998 
L 291.093313 -51.63337 
L 291.361332 -51.856742 
L 291.629351 -52.080114 
L 291.89737 -52.303486 
L 292.165388 -52.526858 
L 292.433407 -52.75023 
L 292.701426 -52.973602 
L 292.969444 -53.196974 
L 293.237463 -53.420346 
L 293.505482 -53.643718 
L 293.7735 -53.86709 
L 294.041519 -54.113397 
L 294.309538 -54.430141 
L 294.577556 -54.746884 
L 294.845575 -55.063628 
L 295.113594 -55.380371 
L 295.381612 -55.697115 
L 295.649631 -56.013858 
L 295.91765 -56.330602 
L 296.185668 -56.647345 
L 296.453687 -56.964089 
L 296.721706 -57.280833 
L 296.989724 -57.597576 
L 297.257743 -57.994766 
L 297.525762 -58.424042 
L 297.79378 -58.853319 
L 298.061799 -59.282595 
L 298.329818 -59.711872 
L 298.597837 -60.141148 
L 298.865855 -60.570424 
L 299.133874 -60.999701 
L 299.401893 -61.428977 
L 299.669911 -61.858254 
L 299.93793 -62.28753 
L 300.205949 -62.716806 
L 300.473967 -63.111417 
L 300.741986 -63.457237 
L 301.010005 -63.803058 
L 301.278023 -64.148879 
L 301.546042 -64.494699 
L 301.814061 -64.84052 
L 302.082079 -65.186341 
L 302.350098 -65.532161 
L 302.618117 -65.877982 
L 302.886135 -66.223803 
L 303.154154 -66.569623 
L 303.422173 -66.915444 
L 303.690191 -67.178651 
L 303.95821 -66.811658 
L 304.226229 -66.444665 
L 304.494247 -66.077671 
L 304.762266 -65.710678 
L 305.030285 -65.343685 
L 305.298303 -64.976691 
L 305.566322 -64.609698 
L 305.834341 -64.242704 
L 306.10236 -63.875711 
L 306.370378 -63.508718 
L 306.638397 -63.141724 
L 306.906416 -62.18193 
L 307.174434 -60.801823 
L 307.442453 -59.421716 
L 307.710472 -58.041609 
L 307.97849 -56.661502 
L 308.246509 -55.281396 
L 308.514528 -53.901289 
L 308.782546 -52.521182 
L 309.050565 -51.141075 
L 309.318584 -49.760968 
L 309.586602 -48.380861 
L 309.854621 -47.000755 
L 310.12264 -45.899175 
L 310.390658 -45.494165 
L 310.658677 -45.089155 
L 310.926696 -44.684145 
L 311.194714 -44.279135 
L 311.462733 -43.874125 
L 311.730752 -43.469115 
L 311.99877 -43.064104 
L 312.266789 -42.659094 
L 312.534808 -42.254084 
L 312.802826 -41.849074 
L 313.070845 -41.444064 
L 313.338864 -41.302564 
L 313.606883 -41.246632 
L 313.874901 -41.190701 
L 314.14292 -41.13477 
L 314.410939 -41.078839 
L 314.678957 -41.022908 
L 314.946976 -40.966976 
L 315.214995 -40.911045 
L 315.483013 -40.855114 
L 315.751032 -40.799183 
L 316.019051 -40.743252 
L 316.287069 -40.68732 
L 316.555088 -40.652842 
L 316.823107 -40.64402 
L 317.091125 -40.635198 
L 317.359144 -40.626376 
L 317.627163 -40.617554 
L 317.895181 -40.608732 
L 318.1632 -40.59991 
L 318.431219 -40.591088 
L 318.699237 -40.582266 
L 318.967256 -40.573444 
L 319.235275 -40.564622 
L 319.503293 -40.555801 
L 319.771312 -40.559327 
L 320.039331 -40.629715 
L 320.30735 -40.700102 
L 320.575368 -40.770489 
L 320.843387 -40.840877 
L 321.111406 -40.911264 
L 321.379424 -40.981652 
L 321.647443 -41.052039 
L 321.915462 -41.122427 
L 322.18348 -41.192814 
L 322.451499 -41.263202 
L 322.719518 -41.333589 
L 322.987536 -41.293025 
L 323.255555 -41.185926 
L 323.523574 -41.078828 
L 323.791592 -40.971729 
L 324.059611 -40.864631 
L 324.32763 -40.757532 
L 324.595648 -40.650434 
L 324.863667 -40.543335 
L 325.131686 -40.436237 
L 325.399704 -40.329138 
L 325.667723 -40.222039 
L 325.935742 -40.114941 
L 326.20376 -40.023879 
L 326.471779 -39.966025 
L 326.739798 -39.908172 
L 327.007816 -39.850319 
L 327.275835 -39.792466 
L 327.543854 -39.734613 
L 327.811873 -39.676759 
L 328.079891 -39.618906 
L 328.34791 -39.561053 
L 328.615929 -39.5032 
L 328.883947 -39.445347 
L 329.151966 -39.387493 
L 329.419985 -39.34515 
L 329.688003 -39.30681 
L 329.956022 -39.26847 
L 330.224041 -39.23013 
L 330.492059 -39.19179 
L 330.760078 -39.153449 
L 331.028097 -39.115109 
L 331.296115 -39.076769 
L 331.564134 -39.038429 
L 331.832153 -39.000088 
L 332.100171 -38.961748 
L 332.36819 -38.923408 
L 332.636209 -38.905021 
L 332.904227 -38.90696 
L 333.172246 -38.908898 
L 333.440265 -38.910837 
L 333.708283 -38.912775 
L 333.976302 -38.914714 
L 334.244321 -38.916652 
L 334.51234 -38.918591 
L 334.780358 -38.920529 
L 335.048377 -38.922468 
L 335.316396 -38.924406 
L 335.584414 -38.926345 
L 335.852433 -38.952402 
L 336.120452 -38.979344 
L 336.38847 -39.006287 
L 336.656489 -39.033229 
L 336.924508 -39.060171 
L 337.192526 -39.087113 
L 337.460545 -39.114056 
L 337.728564 -39.140998 
L 337.996582 -39.16794 
L 338.264601 -39.194882 
L 338.53262 -39.221825 
L 338.800638 -39.248767 
L 339.068657 -39.237616 
L 339.336676 -39.207286 
L 339.604694 -39.176956 
L 339.872713 -39.146626 
L 340.140732 -39.116296 
L 340.40875 -39.085966 
L 340.676769 -39.055636 
L 340.944788 -39.025307 
L 341.212806 -38.994977 
L 341.480825 -38.964647 
L 341.748844 -38.934317 
L 342.016863 -38.903987 
L 342.284881 -38.869491 
L 342.5529 -38.827767 
L 342.820919 -38.786042 
L 343.088937 -38.744318 
L 343.356956 -38.702594 
L 343.624975 -38.660869 
L 343.892993 -38.619145 
L 344.161012 -38.577421 
L 344.429031 -38.535696 
L 344.697049 -38.493972 
L 344.965068 -38.452248 
L 345.233087 -38.410523 
L 345.501105 -38.385633 
L 345.769124 -38.364072 
L 346.037143 -38.342511 
L 346.305161 -38.32095 
L 346.57318 -38.299389 
L 346.841199 -38.277829 
L 347.109217 -38.256268 
L 347.377236 -38.234707 
L 347.645255 -38.213146 
L 347.913273 -38.191585 
L 348.181292 -38.170024 
L 348.449311 -38.148463 
L 348.717329 -38.133609 
L 348.985348 -38.124576 
L 349.253367 -38.115542 
L 349.521386 -38.106508 
L 349.789404 -38.097475 
L 350.057423 -38.088441 
L 350.325442 -38.079407 
L 350.59346 -38.070374 
L 350.861479 -38.06134 
L 351.129498 -38.052306 
L 351.397516 -38.043273 
L 351.665535 -38.034333 
L 351.933554 -38.045696 
L 352.201572 -38.057058 
L 352.469591 -38.068421 
L 352.73761 -38.079784 
L 353.005628 -38.091146 
L 353.273647 -38.102509 
L 353.541666 -38.113872 
L 353.809684 -38.125234 
L 354.077703 -38.136597 
L 354.345722 -38.14796 
L 354.61374 -38.159322 
L 354.881759 -38.170685 
L 355.149778 -38.182409 
L 355.417796 -38.194283 
L 355.685815 -38.206157 
L 355.953834 -38.218032 
L 356.221853 -38.229906 
L 356.489871 -38.24178 
L 356.75789 -38.253655 
L 357.025909 -38.265529 
L 357.293927 -38.277403 
L 357.561946 -38.289278 
L 357.829965 -38.301152 
L 358.097983 -38.313027 
L 358.366002 -38.311259 
L 358.634021 -38.289503 
L 358.902039 -38.267747 
L 359.170058 -38.245991 
L 359.438077 -38.224235 
L 359.706095 -38.202478 
L 359.974114 -38.180722 
L 360.242133 -38.158966 
L 360.510151 -38.13721 
L 360.77817 -38.115454 
L 361.046189 -38.093698 
L 361.314207 -38.071942 
L 361.582226 -38.051066 
L 361.850245 -38.030317 
L 362.118263 -38.009568 
L 362.386282 -37.988819 
L 362.654301 -37.968069 
L 362.922319 -37.94732 
L 363.190338 -37.926571 
L 363.458357 -37.905822 
L 363.726376 -37.885073 
L 363.994394 -37.864323 
L 364.262413 -37.843574 
L 364.530432 -37.822825 
L 364.79845 -37.815909 
L 365.066469 -37.819203 
L 365.334488 -37.822496 
L 365.602506 -37.82579 
L 365.870525 -37.829084 
L 366.138544 -37.832377 
L 366.406562 -37.835671 
L 366.674581 -37.838964 
L 366.9426 -37.842258 
L 367.210618 -37.845551 
L 367.478637 -37.848845 
L 367.746656 -37.851892 
L 368.014674 -37.849669 
L 368.282693 -37.847446 
L 368.550712 -37.845223 
L 368.81873 -37.843 
L 369.086749 -37.840776 
L 369.354768 -37.838553 
L 369.622786 -37.83633 
L 369.890805 -37.834107 
L 370.158824 -37.831884 
L 370.426843 -37.829661 
L 370.694861 -37.827438 
L 370.96288 -37.825214 
L 371.230899 -37.822991 
L 371.498917 -37.820768 
L 371.766936 -37.818545 
L 372.034955 -37.816322 
L 372.302973 -37.814099 
L 372.570992 -37.811876 
L 372.839011 -37.809653 
L 373.107029 -37.807429 
L 373.375048 -37.805206 
L 373.643067 -37.802983 
L 373.911085 -37.80076 
L 374.179104 -37.798537 
L 374.447123 -37.800517 
L 374.715141 -37.807725 
L 374.98316 -37.814933 
L 375.251179 -37.822141 
L 375.519197 -37.829349 
L 375.787216 -37.836557 
L 376.055235 -37.843765 
L 376.323253 -37.850974 
L 376.591272 -37.858182 
L 376.859291 -37.86539 
L 377.127309 -37.872598 
L 377.395328 -37.879806 
L 377.663347 -37.874592 
L 377.931366 -37.868223 
L 378.199384 -37.861854 
L 378.467403 -37.855484 
L 378.735422 -37.849115 
L 379.00344 -37.842745 
L 379.271459 -37.836376 
L 379.539478 -37.830006 
L 379.807496 -37.823637 
L 380.075515 -37.817267 
L 380.343534 -37.810898 
L 380.611552 -37.804529 
L 380.879571 -37.801951 
L 381.14759 -37.801744 
L 381.415608 -37.801537 
L 381.683627 -37.80133 
L 381.951646 -37.801123 
L 382.219664 -37.800916 
L 382.487683 -37.800709 
L 382.755702 -37.800502 
L 383.02372 -37.800295 
L 383.291739 -37.800088 
L 383.559758 -37.799881 
L 383.827776 -37.800347 
L 384.095795 -37.808093 
L 384.363814 -37.815838 
L 384.631832 -37.823584 
L 384.899851 -37.83133 
L 385.16787 -37.839075 
L 385.435889 -37.846821 
L 385.703907 -37.854567 
L 385.971926 -37.862312 
L 386.239945 -37.870058 
L 386.507963 -37.877804 
L 386.775982 -37.885549 
L 387.044001 -37.893295 
L 387.312019 -37.898755 
L 387.580038 -37.90359 
L 387.848057 -37.908424 
L 388.116075 -37.913258 
L 388.384094 -37.918093 
L 388.652113 -37.922927 
L 388.920131 -37.927762 
L 389.18815 -37.932596 
L 389.456169 -37.937431 
L 389.724187 -37.942265 
L 389.992206 -37.947099 
L 390.260225 -37.951934 
L 390.528243 -37.945738 
L 390.796262 -37.927858 
L 391.064281 -37.909979 
L 391.332299 -37.8921 
L 391.600318 -37.874221 
L 391.868337 -37.856342 
L 392.136356 -37.838463 
L 392.404374 -37.820583 
L 392.672393 -37.802704 
L 392.940412 -37.784825 
L 393.20843 -37.766946 
L 393.476449 -37.749067 
L 393.744468 -37.747755 
L 394.012486 -37.747225 
L 394.280505 -37.746696 
L 394.548524 -37.746167 
L 394.816542 -37.745637 
L 395.084561 -37.745108 
L 395.35258 -37.744579 
L 395.620598 -37.744049 
L 395.888617 -37.74352 
L 396.156636 -37.742991 
L 396.424654 -37.742461 
L 396.692673 -37.741932 
L 396.960692 -37.74323 
L 397.22871 -37.745488 
L 397.496729 -37.747747 
L 397.764748 -37.750005 
L 398.032766 -37.752263 
L 398.300785 -37.754522 
L 398.568804 -37.75678 
L 398.836822 -37.759039 
L 399.104841 -37.761297 
L 399.37286 -37.763556 
L 399.640879 -37.765814 
L 399.908897 -37.767303 
L 400.176916 -37.763386 
L 400.444935 -37.759469 
L 400.712953 -37.755552 
L 400.980972 -37.751635 
L 401.248991 -37.747718 
L 401.517009 -37.743801 
L 401.785028 -37.739884 
L 402.053047 -37.735967 
L 402.321065 -37.73205 
L 402.589084 -37.728133 
L 402.857103 -37.724216 
L 403.125121 -37.720299 
L 403.39314 -37.718202 
L 403.661159 -37.716491 
L 403.929177 -37.714779 
L 404.197196 -37.713068 
L 404.465215 -37.711357 
L 404.733233 -37.709645 
L 405.001252 -37.707934 
L 405.269271 -37.706222 
L 405.537289 -37.704511 
L 405.805308 -37.702799 
L 406.073327 -37.701088 
L 406.341346 -37.699376 
L 406.609364 -37.695925 
L 406.877383 -37.690904 
L 407.145402 -37.685883 
L 407.41342 -37.680861 
L 407.681439 -37.67584 
L 407.949458 -37.670819 
L 408.217476 -37.665798 
L 408.485495 -37.660777 
L 408.753514 -37.655755 
L 409.021532 -37.650734 
L 409.289551 -37.645713 
L 409.55757 -37.640692 
L 409.825588 -37.638136 
L 410.093607 -37.635594 
L 410.361626 -37.633051 
L 410.629644 -37.630509 
L 410.897663 -37.627966 
L 411.165682 -37.625424 
L 411.4337 -37.622882 
L 411.701719 -37.620339 
L 411.969738 -37.617797 
L 412.237756 -37.615254 
L 412.505775 -37.612712 
L 412.773794 -37.610169 
L 413.041812 -37.611191 
L 413.309831 -37.613775 
L 413.57785 -37.616359 
L 413.845869 -37.618944 
L 414.113887 -37.621528 
L 414.381906 -37.624112 
L 414.649925 -37.626696 
L 414.917943 -37.62928 
L 415.185962 -37.631864 
L 415.453981 -37.634448 
L 415.721999 -37.637032 
L 415.990018 -37.638598 
L 416.258037 -37.635002 
L 416.526055 -37.631407 
L 416.794074 -37.627811 
L 417.062093 -37.624215 
L 417.330111 -37.620619 
L 417.59813 -37.617023 
L 417.866149 -37.613427 
L 418.134167 -37.609832 
L 418.402186 -37.606236 
L 418.670205 -37.60264 
L 418.938223 -37.599044 
L 419.206242 -37.595448 
L 419.474261 -37.59368 
L 419.742279 -37.592196 
L 420.010298 -37.590712 
L 420.278317 -37.589228 
L 420.546335 -37.587744 
L 420.814354 -37.58626 
L 421.082373 -37.584777 
L 421.350392 -37.583293 
L 421.61841 -37.581809 
L 421.886429 -37.580325 
L 422.154448 -37.578841 
L 422.422466 -37.577357 
L 422.690485 -37.576502 
L 422.958504 -37.576129 
L 423.226522 -37.575757 
L 423.494541 -37.575384 
L 423.76256 -37.575011 
L 424.030578 -37.574639 
L 424.298597 -37.574266 
L 424.566616 -37.573893 
L 424.834634 -37.573521 
L 425.102653 -37.573148 
L 425.370672 -37.572776 
L 425.63869 -37.572485 
L 425.906709 -37.574463 
L 426.174728 -37.576441 
L 426.442746 -37.578419 
L 426.710765 -37.580396 
L 426.978784 -37.582374 
L 427.246802 -37.584352 
L 427.514821 -37.58633 
L 427.78284 -37.588308 
L 428.050859 -37.590286 
L 428.318877 -37.592264 
L 428.586896 -37.594242 
L 428.854915 -37.596219 
L 429.122933 -37.597937 
L 429.390952 -37.599561 
L 429.658971 -37.601186 
L 429.926989 -37.60281 
L 430.195008 -37.604434 
L 430.463027 -37.606058 
L 430.731045 -37.607682 
L 430.999064 -37.609307 
L 431.267083 -37.610931 
L 431.535101 -37.612555 
L 431.80312 -37.614179 
L 432.071139 -37.615575 
L 432.339157 -37.616081 
L 432.607176 -37.616587 
L 432.875195 -37.617094 
L 433.143213 -37.6176 
L 433.411232 -37.618106 
L 433.679251 -37.618613 
L 433.947269 -37.619119 
L 434.215288 -37.619626 
L 434.483307 -37.620132 
L 434.751325 -37.620638 
L 435.019344 -37.621145 
L 435.287363 -37.621651 
L 435.555382 -37.62056 
L 435.8234 -37.6193 
L 436.091419 -37.618041 
L 436.359438 -37.616782 
L 436.627456 -37.615523 
L 436.895475 -37.614264 
L 437.163494 -37.613005 
L 437.431512 -37.611746 
L 437.699531 -37.610487 
L 437.96755 -37.609228 
L 438.235568 -37.607969 
L 438.503587 -37.60831 
L 438.771606 -37.611325 
L 439.039624 -37.614341 
L 439.307643 -37.617356 
L 439.575662 -37.620371 
L 439.84368 -37.623387 
L 440.111699 -37.626402 
L 440.379718 -37.629417 
L 440.647736 -37.632433 
L 440.915755 -37.635448 
L 441.183774 -37.638463 
L 441.451792 -37.641479 
L 441.719811 -37.64433 
L 441.98783 -37.645152 
L 442.255849 -37.645974 
L 442.523867 -37.646796 
L 442.523867 -37.447266 
L 442.523867 -37.447266 
L 442.255849 -37.447266 
L 441.98783 -37.447266 
L 441.719811 -37.447266 
L 441.451792 -37.447266 
L 441.183774 -37.447266 
L 440.915755 -37.447266 
L 440.647736 -37.447266 
L 440.379718 -37.447266 
L 440.111699 -37.447266 
L 439.84368 -37.447266 
L 439.575662 -37.447266 
L 439.307643 -37.447266 
L 439.039624 -37.447266 
L 438.771606 -37.447266 
L 438.503587 -37.447266 
L 438.235568 -37.447266 
L 437.96755 -37.447266 
L 437.699531 -37.447266 
L 437.431512 -37.447266 
L 437.163494 -37.447266 
L 436.895475 -37.447266 
L 436.627456 -37.447266 
L 436.359438 -37.447266 
L 436.091419 -37.447266 
L 435.8234 -37.447266 
L 435.555382 -37.447266 
L 435.287363 -37.447266 
L 435.019344 -37.447266 
L 434.751325 -37.447266 
L 434.483307 -37.447266 
L 434.215288 -37.447266 
L 433.947269 -37.447266 
L 433.679251 -37.447266 
L 433.411232 -37.447266 
L 433.143213 -37.447266 
L 432.875195 -37.447266 
L 432.607176 -37.447266 
L 432.339157 -37.447266 
L 432.071139 -37.447266 
L 431.80312 -37.447266 
L 431.535101 -37.447266 
L 431.267083 -37.447266 
L 430.999064 -37.447266 
L 430.731045 -37.447266 
L 430.463027 -37.447266 
L 430.195008 -37.447266 
L 429.926989 -37.447266 
L 429.658971 -37.447266 
L 429.390952 -37.447266 
L 429.122933 -37.447266 
L 428.854915 -37.447266 
L 428.586896 -37.447266 
L 428.318877 -37.447266 
L 428.050859 -37.447266 
L 427.78284 -37.447266 
L 427.514821 -37.447266 
L 427.246802 -37.447266 
L 426.978784 -37.447266 
L 426.710765 -37.447266 
L 426.442746 -37.447266 
L 426.174728 -37.447266 
L 425.906709 -37.447266 
L 425.63869 -37.447266 
L 425.370672 -37.447266 
L 425.102653 -37.447266 
L 424.834634 -37.447266 
L 424.566616 -37.447266 
L 424.298597 -37.447266 
L 424.030578 -37.447266 
L 423.76256 -37.447266 
L 423.494541 -37.447266 
L 423.226522 -37.447266 
L 422.958504 -37.447266 
L 422.690485 -37.447266 
L 422.422466 -37.447266 
L 422.154448 -37.447266 
L 421.886429 -37.447266 
L 421.61841 -37.447266 
L 421.350392 -37.447266 
L 421.082373 -37.447266 
L 420.814354 -37.447266 
L 420.546335 -37.447266 
L 420.278317 -37.447266 
L 420.010298 -37.447266 
L 419.742279 -37.447266 
L 419.474261 -37.447266 
L 419.206242 -37.447266 
L 418.938223 -37.447266 
L 418.670205 -37.447266 
L 418.402186 -37.447266 
L 418.134167 -37.447266 
L 417.866149 -37.447266 
L 417.59813 -37.447266 
L 417.330111 -37.447266 
L 417.062093 -37.447266 
L 416.794074 -37.447266 
L 416.526055 -37.447266 
L 416.258037 -37.447266 
L 415.990018 -37.447266 
L 415.721999 -37.447266 
L 415.453981 -37.447266 
L 415.185962 -37.447266 
L 414.917943 -37.447266 
L 414.649925 -37.447266 
L 414.381906 -37.447266 
L 414.113887 -37.447266 
L 413.845869 -37.447266 
L 413.57785 -37.447266 
L 413.309831 -37.447266 
L 413.041812 -37.447266 
L 412.773794 -37.447266 
L 412.505775 -37.447266 
L 412.237756 -37.447266 
L 411.969738 -37.447266 
L 411.701719 -37.447266 
L 411.4337 -37.447266 
L 411.165682 -37.447266 
L 410.897663 -37.447266 
L 410.629644 -37.447266 
L 410.361626 -37.447266 
L 410.093607 -37.447266 
L 409.825588 -37.447266 
L 409.55757 -37.447266 
L 409.289551 -37.447266 
L 409.021532 -37.447266 
L 408.753514 -37.447266 
L 408.485495 -37.447266 
L 408.217476 -37.447266 
L 407.949458 -37.447266 
L 407.681439 -37.447266 
L 407.41342 -37.447266 
L 407.145402 -37.447266 
L 406.877383 -37.447266 
L 406.609364 -37.447266 
L 406.341346 -37.447266 
L 406.073327 -37.447266 
L 405.805308 -37.447266 
L 405.537289 -37.447266 
L 405.269271 -37.447266 
L 405.001252 -37.447266 
L 404.733233 -37.447266 
L 404.465215 -37.447266 
L 404.197196 -37.447266 
L 403.929177 -37.447266 
L 403.661159 -37.447266 
L 403.39314 -37.447266 
L 403.125121 -37.447266 
L 402.857103 -37.447266 
L 402.589084 -37.447266 
L 402.321065 -37.447266 
L 402.053047 -37.447266 
L 401.785028 -37.447266 
L 401.517009 -37.447266 
L 401.248991 -37.447266 
L 400.980972 -37.447266 
L 400.712953 -37.447266 
L 400.444935 -37.447266 
L 400.176916 -37.447266 
L 399.908897 -37.447266 
L 399.640879 -37.447266 
L 399.37286 -37.447266 
L 399.104841 -37.447266 
L 398.836822 -37.447266 
L 398.568804 -37.447266 
L 398.300785 -37.447266 
L 398.032766 -37.447266 
L 397.764748 -37.447266 
L 397.496729 -37.447266 
L 397.22871 -37.447266 
L 396.960692 -37.447266 
L 396.692673 -37.447266 
L 396.424654 -37.447266 
L 396.156636 -37.447266 
L 395.888617 -37.447266 
L 395.620598 -37.447266 
L 395.35258 -37.447266 
L 395.084561 -37.447266 
L 394.816542 -37.447266 
L 394.548524 -37.447266 
L 394.280505 -37.447266 
L 394.012486 -37.447266 
L 393.744468 -37.447266 
L 393.476449 -37.447266 
L 393.20843 -37.447266 
L 392.940412 -37.447266 
L 392.672393 -37.447266 
L 392.404374 -37.447266 
L 392.136356 -37.447266 
L 391.868337 -37.447266 
L 391.600318 -37.447266 
L 391.332299 -37.447266 
L 391.064281 -37.447266 
L 390.796262 -37.447266 
L 390.528243 -37.447266 
L 390.260225 -37.447266 
L 389.992206 -37.447266 
L 389.724187 -37.447266 
L 389.456169 -37.447266 
L 389.18815 -37.447266 
L 388.920131 -37.447266 
L 388.652113 -37.447266 
L 388.384094 -37.447266 
L 388.116075 -37.447266 
L 387.848057 -37.447266 
L 387.580038 -37.447266 
L 387.312019 -37.447266 
L 387.044001 -37.447266 
L 386.775982 -37.447266 
L 386.507963 -37.447266 
L 386.239945 -37.447266 
L 385.971926 -37.447266 
L 385.703907 -37.447266 
L 385.435889 -37.447266 
L 385.16787 -37.447266 
L 384.899851 -37.447266 
L 384.631832 -37.447266 
L 384.363814 -37.447266 
L 384.095795 -37.447266 
L 383.827776 -37.447266 
L 383.559758 -37.447266 
L 383.291739 -37.447266 
L 383.02372 -37.447266 
L 382.755702 -37.447266 
L 382.487683 -37.447266 
L 382.219664 -37.447266 
L 381.951646 -37.447266 
L 381.683627 -37.447266 
L 381.415608 -37.447266 
L 381.14759 -37.447266 
L 380.879571 -37.447266 
L 380.611552 -37.447266 
L 380.343534 -37.447266 
L 380.075515 -37.447266 
L 379.807496 -37.447266 
L 379.539478 -37.447266 
L 379.271459 -37.447266 
L 379.00344 -37.447266 
L 378.735422 -37.447266 
L 378.467403 -37.447266 
L 378.199384 -37.447266 
L 377.931366 -37.447266 
L 377.663347 -37.447266 
L 377.395328 -37.447266 
L 377.127309 -37.447266 
L 376.859291 -37.447266 
L 376.591272 -37.447266 
L 376.323253 -37.447266 
L 376.055235 -37.447266 
L 375.787216 -37.447266 
L 375.519197 -37.447266 
L 375.251179 -37.447266 
L 374.98316 -37.447266 
L 374.715141 -37.447266 
L 374.447123 -37.447266 
L 374.179104 -37.447266 
L 373.911085 -37.447266 
L 373.643067 -37.447266 
L 373.375048 -37.447266 
L 373.107029 -37.447266 
L 372.839011 -37.447266 
L 372.570992 -37.447266 
L 372.302973 -37.447266 
L 372.034955 -37.447266 
L 371.766936 -37.447266 
L 371.498917 -37.447266 
L 371.230899 -37.447266 
L 370.96288 -37.447266 
L 370.694861 -37.447266 
L 370.426843 -37.447266 
L 370.158824 -37.447266 
L 369.890805 -37.447266 
L 369.622786 -37.447266 
L 369.354768 -37.447266 
L 369.086749 -37.447266 
L 368.81873 -37.447266 
L 368.550712 -37.447266 
L 368.282693 -37.447266 
L 368.014674 -37.447266 
L 367.746656 -37.447266 
L 367.478637 -37.447266 
L 367.210618 -37.447266 
L 366.9426 -37.447266 
L 366.674581 -37.447266 
L 366.406562 -37.447266 
L 366.138544 -37.447266 
L 365.870525 -37.447266 
L 365.602506 -37.447266 
L 365.334488 -37.447266 
L 365.066469 -37.447266 
L 364.79845 -37.447266 
L 364.530432 -37.447266 
L 364.262413 -37.447266 
L 363.994394 -37.447266 
L 363.726376 -37.447266 
L 363.458357 -37.447266 
L 363.190338 -37.447266 
L 362.922319 -37.447266 
L 362.654301 -37.447266 
L 362.386282 -37.447266 
L 362.118263 -37.447266 
L 361.850245 -37.447266 
L 361.582226 -37.447266 
L 361.314207 -37.447266 
L 361.046189 -37.447266 
L 360.77817 -37.447266 
L 360.510151 -37.447266 
L 360.242133 -37.447266 
L 359.974114 -37.447266 
L 359.706095 -37.447266 
L 359.438077 -37.447266 
L 359.170058 -37.447266 
L 358.902039 -37.447266 
L 358.634021 -37.447266 
L 358.366002 -37.447266 
L 358.097983 -37.447266 
L 357.829965 -37.447266 
L 357.561946 -37.447266 
L 357.293927 -37.447266 
L 357.025909 -37.447266 
L 356.75789 -37.447266 
L 356.489871 -37.447266 
L 356.221853 -37.447266 
L 355.953834 -37.447266 
L 355.685815 -37.447266 
L 355.417796 -37.447266 
L 355.149778 -37.447266 
L 354.881759 -37.447266 
L 354.61374 -37.447266 
L 354.345722 -37.447266 
L 354.077703 -37.447266 
L 353.809684 -37.447266 
L 353.541666 -37.447266 
L 353.273647 -37.447266 
L 353.005628 -37.447266 
L 352.73761 -37.447266 
L 352.469591 -37.447266 
L 352.201572 -37.447266 
L 351.933554 -37.447266 
L 351.665535 -37.447266 
L 351.397516 -37.447266 
L 351.129498 -37.447266 
L 350.861479 -37.447266 
L 350.59346 -37.447266 
L 350.325442 -37.447266 
L 350.057423 -37.447266 
L 349.789404 -37.447266 
L 349.521386 -37.447266 
L 349.253367 -37.447266 
L 348.985348 -37.447266 
L 348.717329 -37.447266 
L 348.449311 -37.447266 
L 348.181292 -37.447266 
L 347.913273 -37.447266 
L 347.645255 -37.447266 
L 347.377236 -37.447266 
L 347.109217 -37.447266 
L 346.841199 -37.447266 
L 346.57318 -37.447266 
L 346.305161 -37.447266 
L 346.037143 -37.447266 
L 345.769124 -37.447266 
L 345.501105 -37.447266 
L 345.233087 -37.447266 
L 344.965068 -37.447266 
L 344.697049 -37.447266 
L 344.429031 -37.447266 
L 344.161012 -37.447266 
L 343.892993 -37.447266 
L 343.624975 -37.447266 
L 343.356956 -37.447266 
L 343.088937 -37.447266 
L 342.820919 -37.447266 
L 342.5529 -37.447266 
L 342.284881 -37.447266 
L 342.016863 -37.447266 
L 341.748844 -37.447266 
L 341.480825 -37.447266 
L 341.212806 -37.447266 
L 340.944788 -37.447266 
L 340.676769 -37.447266 
L 340.40875 -37.447266 
L 340.140732 -37.447266 
L 339.872713 -37.447266 
L 339.604694 -37.447266 
L 339.336676 -37.447266 
L 339.068657 -37.447266 
L 338.800638 -37.447266 
L 338.53262 -37.447266 
L 338.264601 -37.447266 
L 337.996582 -37.447266 
L 337.728564 -37.447266 
L 337.460545 -37.447266 
L 337.192526 -37.447266 
L 336.924508 -37.447266 
L 336.656489 -37.447266 
L 336.38847 -37.447266 
L 336.120452 -37.447266 
L 335.852433 -37.447266 
L 335.584414 -37.447266 
L 335.316396 -37.447266 
L 335.048377 -37.447266 
L 334.780358 -37.447266 
L 334.51234 -37.447266 
L 334.244321 -37.447266 
L 333.976302 -37.447266 
L 333.708283 -37.447266 
L 333.440265 -37.447266 
L 333.172246 -37.447266 
L 332.904227 -37.447266 
L 332.636209 -37.447266 
L 332.36819 -37.447266 
L 332.100171 -37.447266 
L 331.832153 -37.447266 
L 331.564134 -37.447266 
L 331.296115 -37.447266 
L 331.028097 -37.447266 
L 330.760078 -37.447266 
L 330.492059 -37.447266 
L 330.224041 -37.447266 
L 329.956022 -37.447266 
L 329.688003 -37.447266 
L 329.419985 -37.447266 
L 329.151966 -37.447266 
L 328.883947 -37.447266 
L 328.615929 -37.447266 
L 328.34791 -37.447266 
L 328.079891 -37.447266 
L 327.811873 -37.447266 
L 327.543854 -37.447266 
L 327.275835 -37.447266 
L 327.007816 -37.447266 
L 326.739798 -37.447266 
L 326.471779 -37.447266 
L 326.20376 -37.447266 
L 325.935742 -37.447266 
L 325.667723 -37.447266 
L 325.399704 -37.447266 
L 325.131686 -37.447266 
L 324.863667 -37.447266 
L 324.595648 -37.447266 
L 324.32763 -37.447266 
L 324.059611 -37.447266 
L 323.791592 -37.447266 
L 323.523574 -37.447266 
L 323.255555 -37.447266 
L 322.987536 -37.447266 
L 322.719518 -37.447266 
L 322.451499 -37.447266 
L 322.18348 -37.447266 
L 321.915462 -37.447266 
L 321.647443 -37.447266 
L 321.379424 -37.447266 
L 321.111406 -37.447266 
L 320.843387 -37.447266 
L 320.575368 -37.447266 
L 320.30735 -37.447266 
L 320.039331 -37.447266 
L 319.771312 -37.447266 
L 319.503293 -37.447266 
L 319.235275 -37.447266 
L 318.967256 -37.447266 
L 318.699237 -37.447266 
L 318.431219 -37.447266 
L 318.1632 -37.447266 
L 317.895181 -37.447266 
L 317.627163 -37.447266 
L 317.359144 -37.447266 
L 317.091125 -37.447266 
L 316.823107 -37.447266 
L 316.555088 -37.447266 
L 316.287069 -37.447266 
L 316.019051 -37.447266 
L 315.751032 -37.447266 
L 315.483013 -37.447266 
L 315.214995 -37.447266 
L 314.946976 -37.447266 
L 314.678957 -37.447266 
L 314.410939 -37.447266 
L 314.14292 -37.447266 
L 313.874901 -37.447266 
L 313.606883 -37.447266 
L 313.338864 -37.447266 
L 313.070845 -37.447266 
L 312.802826 -37.447266 
L 312.534808 -37.447266 
L 312.266789 -37.447266 
L 311.99877 -37.447266 
L 311.730752 -37.447266 
L 311.462733 -37.447266 
L 311.194714 -37.447266 
L 310.926696 -37.447266 
L 310.658677 -37.447266 
L 310.390658 -37.447266 
L 310.12264 -37.447266 
L 309.854621 -37.447266 
L 309.586602 -37.447266 
L 309.318584 -37.447266 
L 309.050565 -37.447266 
L 308.782546 -37.447266 
L 308.514528 -37.447266 
L 308.246509 -37.447266 
L 307.97849 -37.447266 
L 307.710472 -37.447266 
L 307.442453 -37.447266 
L 307.174434 -37.447266 
L 306.906416 -37.447266 
L 306.638397 -37.447266 
L 306.370378 -37.447266 
L 306.10236 -37.447266 
L 305.834341 -37.447266 
L 305.566322 -37.447266 
L 305.298303 -37.447266 
L 305.030285 -37.447266 
L 304.762266 -37.447266 
L 304.494247 -37.447266 
L 304.226229 -37.447266 
L 303.95821 -37.447266 
L 303.690191 -37.447266 
L 303.422173 -37.447266 
L 303.154154 -37.447266 
L 302.886135 -37.447266 
L 302.618117 -37.447266 
L 302.350098 -37.447266 
L 302.082079 -37.447266 
L 301.814061 -37.447266 
L 301.546042 -37.447266 
L 301.278023 -37.447266 
L 301.010005 -37.447266 
L 300.741986 -37.447266 
L 300.473967 -37.447266 
L 300.205949 -37.447266 
L 299.93793 -37.447266 
L 299.669911 -37.447266 
L 299.401893 -37.447266 
L 299.133874 -37.447266 
L 298.865855 -37.447266 
L 298.597837 -37.447266 
L 298.329818 -37.447266 
L 298.061799 -37.447266 
L 297.79378 -37.447266 
L 297.525762 -37.447266 
L 297.257743 -37.447266 
L 296.989724 -37.447266 
L 296.721706 -37.447266 
L 296.453687 -37.447266 
L 296.185668 -37.447266 
L 295.91765 -37.447266 
L 295.649631 -37.447266 
L 295.381612 -37.447266 
L 295.113594 -37.447266 
L 294.845575 -37.447266 
L 294.577556 -37.447266 
L 294.309538 -37.447266 
L 294.041519 -37.447266 
L 293.7735 -37.447266 
L 293.505482 -37.447266 
L 293.237463 -37.447266 
L 292.969444 -37.447266 
L 292.701426 -37.447266 
L 292.433407 -37.447266 
L 292.165388 -37.447266 
L 291.89737 -37.447266 
L 291.629351 -37.447266 
L 291.361332 -37.447266 
L 291.093313 -37.447266 
L 290.825295 -37.447266 
L 290.557276 -37.447266 
L 290.289257 -37.447266 
L 290.021239 -37.447266 
L 289.75322 -37.447266 
L 289.485201 -37.447266 
L 289.217183 -37.447266 
L 288.949164 -37.447266 
L 288.681145 -37.447266 
L 288.413127 -37.447266 
L 288.145108 -37.447266 
L 287.877089 -37.447266 
L 287.609071 -37.447266 
L 287.341052 -37.447266 
L 287.073033 -37.447266 
L 286.805015 -37.447266 
L 286.536996 -37.447266 
L 286.268977 -37.447266 
L 286.000959 -37.447266 
L 285.73294 -37.447266 
L 285.464921 -37.447266 
L 285.196903 -37.447266 
L 284.928884 -37.447266 
L 284.660865 -37.447266 
L 284.392847 -37.447266 
L 284.124828 -37.447266 
L 283.856809 -37.447266 
L 283.58879 -37.447266 
L 283.320772 -37.447266 
L 283.052753 -37.447266 
L 282.784734 -37.447266 
L 282.516716 -37.447266 
L 282.248697 -37.447266 
L 281.980678 -37.447266 
L 281.71266 -37.447266 
L 281.444641 -37.447266 
L 281.176622 -37.447266 
L 280.908604 -37.447266 
L 280.640585 -37.447266 
L 280.372566 -37.447266 
L 280.104548 -37.447266 
L 279.836529 -37.447266 
L 279.56851 -37.447266 
L 279.300492 -37.447266 
L 279.032473 -37.447266 
L 278.764454 -37.447266 
L 278.496436 -37.447266 
L 278.228417 -37.447266 
L 277.960398 -37.447266 
L 277.69238 -37.447266 
L 277.424361 -37.447266 
L 277.156342 -37.447266 
L 276.888323 -37.447266 
L 276.620305 -37.447266 
L 276.352286 -37.447266 
L 276.084267 -37.447266 
L 275.816249 -37.447266 
L 275.54823 -37.447266 
L 275.280211 -37.447266 
L 275.012193 -37.447266 
L 274.744174 -37.447266 
L 274.476155 -37.447266 
L 274.208137 -37.447266 
L 273.940118 -37.447266 
L 273.672099 -37.447266 
L 273.404081 -37.447266 
L 273.136062 -37.447266 
L 272.868043 -37.447266 
L 272.600025 -37.447266 
L 272.332006 -37.447266 
L 272.063987 -37.447266 
L 271.795969 -37.447266 
L 271.52795 -37.447266 
L 271.259931 -37.447266 
L 270.991913 -37.447266 
L 270.723894 -37.447266 
L 270.455875 -37.447266 
L 270.187857 -37.447266 
L 269.919838 -37.447266 
L 269.651819 -37.447266 
L 269.3838 -37.447266 
L 269.115782 -37.447266 
L 268.847763 -37.447266 
L 268.579744 -37.447266 
L 268.311726 -37.447266 
L 268.043707 -37.447266 
L 267.775688 -37.447266 
L 267.50767 -37.447266 
L 267.239651 -37.447266 
L 266.971632 -37.447266 
L 266.703614 -37.447266 
L 266.435595 -37.447266 
L 266.167576 -37.447266 
L 265.899558 -37.447266 
L 265.631539 -37.447266 
L 265.36352 -37.447266 
L 265.095502 -37.447266 
L 264.827483 -37.447266 
L 264.559464 -37.447266 
L 264.291446 -37.447266 
L 264.023427 -37.447266 
L 263.755408 -37.447266 
L 263.48739 -37.447266 
L 263.219371 -37.447266 
L 262.951352 -37.447266 
L 262.683333 -37.447266 
L 262.415315 -37.447266 
L 262.147296 -37.447266 
L 261.879277 -37.447266 
L 261.611259 -37.447266 
L 261.34324 -37.447266 
L 261.075221 -37.447266 
L 260.807203 -37.447266 
L 260.539184 -37.447266 
L 260.271165 -37.447266 
L 260.003147 -37.447266 
L 259.735128 -37.447266 
L 259.467109 -37.447266 
L 259.199091 -37.447266 
L 258.931072 -37.447266 
L 258.663053 -37.447266 
L 258.395035 -37.447266 
L 258.127016 -37.447266 
L 257.858997 -37.447266 
L 257.590979 -37.447266 
L 257.32296 -37.447266 
L 257.054941 -37.447266 
L 256.786923 -37.447266 
L 256.518904 -37.447266 
L 256.250885 -37.447266 
L 255.982867 -37.447266 
L 255.714848 -37.447266 
L 255.446829 -37.447266 
L 255.17881 -37.447266 
L 254.910792 -37.447266 
L 254.642773 -37.447266 
L 254.374754 -37.447266 
L 254.106736 -37.447266 
L 253.838717 -37.447266 
L 253.570698 -37.447266 
L 253.30268 -37.447266 
L 253.034661 -37.447266 
L 252.766642 -37.447266 
L 252.498624 -37.447266 
L 252.230605 -37.447266 
L 251.962586 -37.447266 
L 251.694568 -37.447266 
L 251.426549 -37.447266 
L 251.15853 -37.447266 
L 250.890512 -37.447266 
L 250.622493 -37.447266 
L 250.354474 -37.447266 
L 250.086456 -37.447266 
L 249.818437 -37.447266 
L 249.550418 -37.447266 
L 249.2824 -37.447266 
L 249.014381 -37.447266 
L 248.746362 -37.447266 
L 248.478344 -37.447266 
L 248.210325 -37.447266 
L 247.942306 -37.447266 
L 247.674287 -37.447266 
L 247.406269 -37.447266 
L 247.13825 -37.447266 
L 246.870231 -37.447266 
L 246.602213 -37.447266 
L 246.334194 -37.447266 
L 246.066175 -37.447266 
L 245.798157 -37.447266 
L 245.530138 -37.447266 
L 245.262119 -37.447266 
L 244.994101 -37.447266 
L 244.726082 -37.447266 
L 244.458063 -37.447266 
L 244.190045 -37.447266 
L 243.922026 -37.447266 
L 243.654007 -37.447266 
L 243.385989 -37.447266 
L 243.11797 -37.447266 
L 242.849951 -37.447266 
L 242.581933 -37.447266 
L 242.313914 -37.447266 
L 242.045895 -37.447266 
L 241.777877 -37.447266 
L 241.509858 -37.447266 
L 241.241839 -37.447266 
L 240.97382 -37.447266 
L 240.705802 -37.447266 
L 240.437783 -37.447266 
L 240.169764 -37.447266 
L 239.901746 -37.447266 
L 239.633727 -37.447266 
L 239.365708 -37.447266 
L 239.09769 -37.447266 
L 238.829671 -37.447266 
L 238.561652 -37.447266 
L 238.293634 -37.447266 
L 238.025615 -37.447266 
L 237.757596 -37.447266 
L 237.489578 -37.447266 
L 237.221559 -37.447266 
L 236.95354 -37.447266 
L 236.685522 -37.447266 
L 236.417503 -37.447266 
L 236.149484 -37.447266 
L 235.881466 -37.447266 
L 235.613447 -37.447266 
L 235.345428 -37.447266 
L 235.07741 -37.447266 
L 234.809391 -37.447266 
L 234.541372 -37.447266 
L 234.273354 -37.447266 
L 234.005335 -37.447266 
L 233.737316 -37.447266 
L 233.469297 -37.447266 
L 233.201279 -37.447266 
L 232.93326 -37.447266 
L 232.665241 -37.447266 
L 232.397223 -37.447266 
L 232.129204 -37.447266 
L 231.861185 -37.447266 
L 231.593167 -37.447266 
L 231.325148 -37.447266 
L 231.057129 -37.447266 
L 230.789111 -37.447266 
L 230.521092 -37.447266 
L 230.253073 -37.447266 
L 229.985055 -37.447266 
L 229.717036 -37.447266 
L 229.449017 -37.447266 
L 229.180999 -37.447266 
L 228.91298 -37.447266 
L 228.644961 -37.447266 
L 228.376943 -37.447266 
L 228.108924 -37.447266 
L 227.840905 -37.447266 
L 227.572887 -37.447266 
L 227.304868 -37.447266 
L 227.036849 -37.447266 
L 226.76883 -37.447266 
L 226.500812 -37.447266 
L 226.232793 -37.447266 
L 225.964774 -37.447266 
L 225.696756 -37.447266 
L 225.428737 -37.447266 
L 225.160718 -37.447266 
L 224.8927 -37.447266 
L 224.624681 -37.447266 
L 224.356662 -37.447266 
L 224.088644 -37.447266 
L 223.820625 -37.447266 
L 223.552606 -37.447266 
L 223.284588 -37.447266 
L 223.016569 -37.447266 
L 222.74855 -37.447266 
L 222.480532 -37.447266 
L 222.212513 -37.447266 
L 221.944494 -37.447266 
L 221.676476 -37.447266 
L 221.408457 -37.447266 
L 221.140438 -37.447266 
L 220.87242 -37.447266 
L 220.604401 -37.447266 
L 220.336382 -37.447266 
L 220.068364 -37.447266 
L 219.800345 -37.447266 
L 219.532326 -37.447266 
L 219.264307 -37.447266 
L 218.996289 -37.447266 
L 218.72827 -37.447266 
L 218.460251 -37.447266 
L 218.192233 -37.447266 
L 217.924214 -37.447266 
L 217.656195 -37.447266 
L 217.388177 -37.447266 
L 217.120158 -37.447266 
L 216.852139 -37.447266 
L 216.584121 -37.447266 
L 216.316102 -37.447266 
L 216.048083 -37.447266 
L 215.780065 -37.447266 
L 215.512046 -37.447266 
L 215.244027 -37.447266 
L 214.976009 -37.447266 
L 214.70799 -37.447266 
L 214.439971 -37.447266 
L 214.171953 -37.447266 
L 213.903934 -37.447266 
L 213.635915 -37.447266 
L 213.367897 -37.447266 
L 213.099878 -37.447266 
L 212.831859 -37.447266 
L 212.563841 -37.447266 
L 212.295822 -37.447266 
L 212.027803 -37.447266 
L 211.759784 -37.447266 
L 211.491766 -37.447266 
L 211.223747 -37.447266 
L 210.955728 -37.447266 
L 210.68771 -37.447266 
L 210.419691 -37.447266 
L 210.151672 -37.447266 
L 209.883654 -37.447266 
L 209.615635 -37.447266 
L 209.347616 -37.447266 
L 209.079598 -37.447266 
L 208.811579 -37.447266 
L 208.54356 -37.447266 
L 208.275542 -37.447266 
L 208.007523 -37.447266 
L 207.739504 -37.447266 
L 207.471486 -37.447266 
L 207.203467 -37.447266 
L 206.935448 -37.447266 
L 206.66743 -37.447266 
L 206.399411 -37.447266 
L 206.131392 -37.447266 
L 205.863374 -37.447266 
L 205.595355 -37.447266 
L 205.327336 -37.447266 
L 205.059317 -37.447266 
L 204.791299 -37.447266 
L 204.52328 -37.447266 
L 204.255261 -37.447266 
L 203.987243 -37.447266 
L 203.719224 -37.447266 
L 203.451205 -37.447266 
L 203.183187 -37.447266 
L 202.915168 -37.447266 
L 202.647149 -37.447266 
L 202.379131 -37.447266 
L 202.111112 -37.447266 
L 201.843093 -37.447266 
L 201.575075 -37.447266 
L 201.307056 -37.447266 
L 201.039037 -37.447266 
L 200.771019 -37.447266 
L 200.503 -37.447266 
L 200.234981 -37.447266 
L 199.966963 -37.447266 
L 199.698944 -37.447266 
L 199.430925 -37.447266 
L 199.162907 -37.447266 
L 198.894888 -37.447266 
L 198.626869 -37.447266 
L 198.358851 -37.447266 
L 198.090832 -37.447266 
L 197.822813 -37.447266 
L 197.554794 -37.447266 
L 197.286776 -37.447266 
L 197.018757 -37.447266 
L 196.750738 -37.447266 
L 196.48272 -37.447266 
L 196.214701 -37.447266 
L 195.946682 -37.447266 
L 195.678664 -37.447266 
L 195.410645 -37.447266 
L 195.142626 -37.447266 
L 194.874608 -37.447266 
L 194.606589 -37.447266 
L 194.33857 -37.447266 
L 194.070552 -37.447266 
L 193.802533 -37.447266 
L 193.534514 -37.447266 
L 193.266496 -37.447266 
L 192.998477 -37.447266 
L 192.730458 -37.447266 
L 192.46244 -37.447266 
L 192.194421 -37.447266 
L 191.926402 -37.447266 
L 191.658384 -37.447266 
L 191.390365 -37.447266 
L 191.122346 -37.447266 
L 190.854327 -37.447266 
L 190.586309 -37.447266 
L 190.31829 -37.447266 
L 190.050271 -37.447266 
L 189.782253 -37.447266 
L 189.514234 -37.447266 
L 189.246215 -37.447266 
L 188.978197 -37.447266 
L 188.710178 -37.447266 
L 188.442159 -37.447266 
L 188.174141 -37.447266 
L 187.906122 -37.447266 
L 187.638103 -37.447266 
L 187.370085 -37.447266 
L 187.102066 -37.447266 
L 186.834047 -37.447266 
L 186.566029 -37.447266 
L 186.29801 -37.447266 
L 186.029991 -37.447266 
L 185.761973 -37.447266 
L 185.493954 -37.447266 
L 185.225935 -37.447266 
L 184.957917 -37.447266 
L 184.689898 -37.447266 
L 184.421879 -37.447266 
L 184.153861 -37.447266 
L 183.885842 -37.447266 
L 183.617823 -37.447266 
L 183.349804 -37.447266 
L 183.081786 -37.447266 
L 182.813767 -37.447266 
L 182.545748 -37.447266 
L 182.27773 -37.447266 
L 182.009711 -37.447266 
L 181.741692 -37.447266 
L 181.473674 -37.447266 
L 181.205655 -37.447266 
L 180.937636 -37.447266 
L 180.669618 -37.447266 
L 180.401599 -37.447266 
L 180.13358 -37.447266 
L 179.865562 -37.447266 
L 179.597543 -37.447266 
L 179.329524 -37.447266 
L 179.061506 -37.447266 
L 178.793487 -37.447266 
L 178.525468 -37.447266 
L 178.25745 -37.447266 
L 177.989431 -37.447266 
L 177.721412 -37.447266 
L 177.453394 -37.447266 
L 177.185375 -37.447266 
L 176.917356 -37.447266 
L 176.649338 -37.447266 
L 176.381319 -37.447266 
L 176.1133 -37.447266 
L 175.845281 -37.447266 
L 175.577263 -37.447266 
L 175.309244 -37.447266 
L 175.041225 -37.447266 
L 174.773207 -37.447266 
L 174.505188 -37.447266 
L 174.237169 -37.447266 
L 173.969151 -37.447266 
L 173.701132 -37.447266 
L 173.433113 -37.447266 
L 173.165095 -37.447266 
L 172.897076 -37.447266 
L 172.629057 -37.447266 
L 172.361039 -37.447266 
L 172.09302 -37.447266 
L 171.825001 -37.447266 
L 171.556983 -37.447266 
L 171.288964 -37.447266 
L 171.020945 -37.447266 
L 170.752927 -37.447266 
L 170.484908 -37.447266 
L 170.216889 -37.447266 
L 169.948871 -37.447266 
L 169.680852 -37.447266 
L 169.412833 -37.447266 
L 169.144814 -37.447266 
L 168.876796 -37.447266 
L 168.608777 -37.447266 
L 168.340758 -37.447266 
L 168.07274 -37.447266 
L 167.804721 -37.447266 
L 167.536702 -37.447266 
L 167.268684 -37.447266 
L 167.000665 -37.447266 
L 166.732646 -37.447266 
L 166.464628 -37.447266 
L 166.196609 -37.447266 
L 165.92859 -37.447266 
L 165.660572 -37.447266 
L 165.392553 -37.447266 
L 165.124534 -37.447266 
L 164.856516 -37.447266 
L 164.588497 -37.447266 
L 164.320478 -37.447266 
L 164.05246 -37.447266 
L 163.784441 -37.447266 
L 163.516422 -37.447266 
L 163.248404 -37.447266 
L 162.980385 -37.447266 
L 162.712366 -37.447266 
L 162.444348 -37.447266 
L 162.176329 -37.447266 
L 161.90831 -37.447266 
L 161.640291 -37.447266 
L 161.372273 -37.447266 
L 161.104254 -37.447266 
L 160.836235 -37.447266 
L 160.568217 -37.447266 
L 160.300198 -37.447266 
L 160.032179 -37.447266 
L 159.764161 -37.447266 
L 159.496142 -37.447266 
L 159.228123 -37.447266 
L 158.960105 -37.447266 
L 158.692086 -37.447266 
L 158.424067 -37.447266 
L 158.156049 -37.447266 
L 157.88803 -37.447266 
L 157.620011 -37.447266 
L 157.351993 -37.447266 
L 157.083974 -37.447266 
L 156.815955 -37.447266 
L 156.547937 -37.447266 
L 156.279918 -37.447266 
L 156.011899 -37.447266 
L 155.743881 -37.447266 
L 155.475862 -37.447266 
L 155.207843 -37.447266 
L 154.939824 -37.447266 
L 154.671806 -37.447266 
L 154.403787 -37.447266 
L 154.135768 -37.447266 
L 153.86775 -37.447266 
L 153.599731 -37.447266 
L 153.331712 -37.447266 
L 153.063694 -37.447266 
L 152.795675 -37.447266 
L 152.527656 -37.447266 
L 152.259638 -37.447266 
L 151.991619 -37.447266 
L 151.7236 -37.447266 
L 151.455582 -37.447266 
L 151.187563 -37.447266 
L 150.919544 -37.447266 
L 150.651526 -37.447266 
L 150.383507 -37.447266 
L 150.115488 -37.447266 
L 149.84747 -37.447266 
L 149.579451 -37.447266 
L 149.311432 -37.447266 
L 149.043414 -37.447266 
L 148.775395 -37.447266 
L 148.507376 -37.447266 
L 148.239358 -37.447266 
L 147.971339 -37.447266 
L 147.70332 -37.447266 
L 147.435301 -37.447266 
L 147.167283 -37.447266 
L 146.899264 -37.447266 
L 146.631245 -37.447266 
L 146.363227 -37.447266 
L 146.095208 -37.447266 
L 145.827189 -37.447266 
L 145.559171 -37.447266 
L 145.291152 -37.447266 
L 145.023133 -37.447266 
L 144.755115 -37.447266 
L 144.487096 -37.447266 
L 144.219077 -37.447266 
L 143.951059 -37.447266 
L 143.68304 -37.447266 
L 143.415021 -37.447266 
L 143.147003 -37.447266 
L 142.878984 -37.447266 
L 142.610965 -37.447266 
L 142.342947 -37.447266 
L 142.074928 -37.447266 
L 141.806909 -37.447266 
L 141.538891 -37.447266 
L 141.270872 -37.447266 
L 141.002853 -37.447266 
L 140.734834 -37.447266 
L 140.466816 -37.447266 
L 140.198797 -37.447266 
L 139.930778 -37.447266 
L 139.66276 -37.447266 
L 139.394741 -37.447266 
L 139.126722 -37.447266 
L 138.858704 -37.447266 
L 138.590685 -37.447266 
L 138.322666 -37.447266 
L 138.054648 -37.447266 
L 137.786629 -37.447266 
L 137.51861 -37.447266 
L 137.250592 -37.447266 
L 136.982573 -37.447266 
L 136.714554 -37.447266 
L 136.446536 -37.447266 
L 136.178517 -37.447266 
L 135.910498 -37.447266 
L 135.64248 -37.447266 
L 135.374461 -37.447266 
L 135.106442 -37.447266 
L 134.838424 -37.447266 
L 134.570405 -37.447266 
L 134.302386 -37.447266 
L 134.034368 -37.447266 
L 133.766349 -37.447266 
L 133.49833 -37.447266 
L 133.230311 -37.447266 
L 132.962293 -37.447266 
L 132.694274 -37.447266 
L 132.426255 -37.447266 
L 132.158237 -37.447266 
L 131.890218 -37.447266 
L 131.622199 -37.447266 
L 131.354181 -37.447266 
L 131.086162 -37.447266 
L 130.818143 -37.447266 
L 130.550125 -37.447266 
L 130.282106 -37.447266 
L 130.014087 -37.447266 
L 129.746069 -37.447266 
L 129.47805 -37.447266 
L 129.210031 -37.447266 
L 128.942013 -37.447266 
L 128.673994 -37.447266 
L 128.405975 -37.447266 
L 128.137957 -37.447266 
L 127.869938 -37.447266 
L 127.601919 -37.447266 
L 127.333901 -37.447266 
L 127.065882 -37.447266 
L 126.797863 -37.447266 
L 126.529845 -37.447266 
L 126.261826 -37.447266 
L 125.993807 -37.447266 
L 125.725788 -37.447266 
L 125.45777 -37.447266 
L 125.189751 -37.447266 
L 124.921732 -37.447266 
L 124.653714 -37.447266 
L 124.385695 -37.447266 
L 124.117676 -37.447266 
L 123.849658 -37.447266 
L 123.581639 -37.447266 
L 123.31362 -37.447266 
L 123.045602 -37.447266 
L 122.777583 -37.447266 
L 122.509564 -37.447266 
L 122.241546 -37.447266 
L 121.973527 -37.447266 
L 121.705508 -37.447266 
L 121.43749 -37.447266 
L 121.169471 -37.447266 
L 120.901452 -37.447266 
L 120.633434 -37.447266 
L 120.365415 -37.447266 
L 120.097396 -37.447266 
L 119.829378 -37.447266 
L 119.561359 -37.447266 
L 119.29334 -37.447266 
L 119.025321 -37.447266 
L 118.757303 -37.447266 
L 118.489284 -37.447266 
L 118.221265 -37.447266 
L 117.953247 -37.447266 
L 117.685228 -37.447266 
L 117.417209 -37.447266 
L 117.149191 -37.447266 
L 116.881172 -37.447266 
L 116.613153 -37.447266 
L 116.345135 -37.447266 
L 116.077116 -37.447266 
L 115.809097 -37.447266 
L 115.541079 -37.447266 
L 115.27306 -37.447266 
L 115.005041 -37.447266 
L 114.737023 -37.447266 
L 114.469004 -37.447266 
L 114.200985 -37.447266 
L 113.932967 -37.447266 
L 113.664948 -37.447266 
L 113.396929 -37.447266 
L 113.128911 -37.447266 
L 112.860892 -37.447266 
L 112.592873 -37.447266 
L 112.324855 -37.447266 
L 112.056836 -37.447266 
L 111.788817 -37.447266 
L 111.520798 -37.447266 
L 111.25278 -37.447266 
L 110.984761 -37.447266 
L 110.716742 -37.447266 
L 110.448724 -37.447266 
L 110.180705 -37.447266 
L 109.912686 -37.447266 
L 109.644668 -37.447266 
L 109.376649 -37.447266 
L 109.10863 -37.447266 
L 108.840612 -37.447266 
L 108.572593 -37.447266 
L 108.304574 -37.447266 
L 108.036556 -37.447266 
L 107.768537 -37.447266 
L 107.500518 -37.447266 
L 107.2325 -37.447266 
L 106.964481 -37.447266 
L 106.696462 -37.447266 
L 106.428444 -37.447266 
L 106.160425 -37.447266 
L 105.892406 -37.447266 
L 105.624388 -37.447266 
L 105.356369 -37.447266 
L 105.08835 -37.447266 
L 104.820331 -37.447266 
L 104.552313 -37.447266 
L 104.284294 -37.447266 
L 104.016275 -37.447266 
L 103.748257 -37.447266 
L 103.480238 -37.447266 
L 103.212219 -37.447266 
L 102.944201 -37.447266 
L 102.676182 -37.447266 
L 102.408163 -37.447266 
L 102.140145 -37.447266 
L 101.872126 -37.447266 
L 101.604107 -37.447266 
L 101.336089 -37.447266 
L 101.06807 -37.447266 
L 100.800051 -37.447266 
L 100.532033 -37.447266 
L 100.264014 -37.447266 
L 99.995995 -37.447266 
L 99.727977 -37.447266 
L 99.459958 -37.447266 
L 99.191939 -37.447266 
L 98.923921 -37.447266 
L 98.655902 -37.447266 
L 98.387883 -37.447266 
L 98.119865 -37.447266 
L 97.851846 -37.447266 
L 97.583827 -37.447266 
L 97.315808 -37.447266 
L 97.04779 -37.447266 
L 96.779771 -37.447266 
L 96.511752 -37.447266 
L 96.243734 -37.447266 
L 95.975715 -37.447266 
L 95.707696 -37.447266 
L 95.439678 -37.447266 
L 95.171659 -37.447266 
L 94.90364 -37.447266 
L 94.635622 -37.447266 
L 94.367603 -37.447266 
L 94.099584 -37.447266 
L 93.831566 -37.447266 
L 93.563547 -37.447266 
L 93.295528 -37.447266 
L 93.02751 -37.447266 
L 92.759491 -37.447266 
L 92.491472 -37.447266 
L 92.223454 -37.447266 
L 91.955435 -37.447266 
L 91.687416 -37.447266 
L 91.419398 -37.447266 
L 91.151379 -37.447266 
L 90.88336 -37.447266 
L 90.615342 -37.447266 
L 90.347323 -37.447266 
L 90.079304 -37.447266 
L 89.811285 -37.447266 
L 89.543267 -37.447266 
L 89.275248 -37.447266 
L 89.007229 -37.447266 
L 88.739211 -37.447266 
L 88.471192 -37.447266 
L 88.203173 -37.447266 
L 87.935155 -37.447266 
L 87.667136 -37.447266 
L 87.399117 -37.447266 
L 87.131099 -37.447266 
L 86.86308 -37.447266 
L 86.595061 -37.447266 
L 86.327043 -37.447266 
L 86.059024 -37.447266 
L 85.791005 -37.447266 
L 85.522987 -37.447266 
L 85.254968 -37.447266 
L 84.986949 -37.447266 
L 84.718931 -37.447266 
L 84.450912 -37.447266 
L 84.182893 -37.447266 
L 83.914875 -37.447266 
L 83.646856 -37.447266 
L 83.378837 -37.447266 
L 83.110818 -37.447266 
L 82.8428 -37.447266 
L 82.574781 -37.447266 
L 82.306762 -37.447266 
L 82.038744 -37.447266 
L 81.770725 -37.447266 
L 81.502706 -37.447266 
L 81.234688 -37.447266 
L 80.966669 -37.447266 
L 80.69865 -37.447266 
L 80.430632 -37.447266 
L 80.162613 -37.447266 
L 79.894594 -37.447266 
L 79.626576 -37.447266 
L 79.358557 -37.447266 
L 79.090538 -37.447266 
L 78.82252 -37.447266 
L 78.554501 -37.447266 
L 78.286482 -37.447266 
L 78.018464 -37.447266 
L 77.750445 -37.447266 
L 77.482426 -37.447266 
L 77.214408 -37.447266 
L 76.946389 -37.447266 
L 76.67837 -37.447266 
L 76.410352 -37.447266 
L 76.142333 -37.447266 
L 75.874314 -37.447266 
L 75.606295 -37.447266 
L 75.338277 -37.447266 
L 75.070258 -37.447266 
L 74.802239 -37.447266 
L 74.534221 -37.447266 
L 74.266202 -37.447266 
L 73.998183 -37.447266 
L 73.730165 -37.447266 
L 73.462146 -37.447266 
L 73.194127 -37.447266 
L 72.926109 -37.447266 
L 72.65809 -37.447266 
L 72.390071 -37.447266 
L 72.122053 -37.447266 
L 71.854034 -37.447266 
L 71.586015 -37.447266 
L 71.317997 -37.447266 
L 71.049978 -37.447266 
L 70.781959 -37.447266 
L 70.513941 -37.447266 
L 70.245922 -37.447266 
L 69.977903 -37.447266 
L 69.709885 -37.447266 
L 69.441866 -37.447266 
L 69.173847 -37.447266 
L 68.905828 -37.447266 
L 68.63781 -37.447266 
L 68.369791 -37.447266 
L 68.101772 -37.447266 
L 67.833754 -37.447266 
L 67.565735 -37.447266 
L 67.297716 -37.447266 
L 67.029698 -37.447266 
L 66.761679 -37.447266 
L 66.49366 -37.447266 
L 66.225642 -37.447266 
L 65.957623 -37.447266 
L 65.689604 -37.447266 
L 65.421586 -37.447266 
L 65.153567 -37.447266 
L 64.885548 -37.447266 
L 64.61753 -37.447266 
L 64.349511 -37.447266 
L 64.081492 -37.447266 
L 63.813474 -37.447266 
L 63.545455 -37.447266 
L 63.277436 -37.447266 
L 63.009418 -37.447266 
L 62.741399 -37.447266 
L 62.47338 -37.447266 
L 62.205362 -37.447266 
L 61.937343 -37.447266 
L 61.669324 -37.447266 
L 61.401305 -37.447266 
L 61.133287 -37.447266 
L 60.865268 -37.447266 
L 60.597249 -37.447266 
L 60.329231 -37.447266 
L 60.061212 -37.447266 
L 59.793193 -37.447266 
L 59.525175 -37.447266 
L 59.257156 -37.447266 
L 58.989137 -37.447266 
L 58.721119 -37.447266 
L 58.4531 -37.447266 
L 58.185081 -37.447266 
L 57.917063 -37.447266 
L 57.649044 -37.447266 
L 57.381025 -37.447266 
L 57.113007 -37.447266 
L 56.844988 -37.447266 
L 56.576969 -37.447266 
L 56.308951 -37.447266 
L 56.040932 -37.447266 
L 55.772913 -37.447266 
L 55.504895 -37.447266 
L 55.236876 -37.447266 
L 54.968857 -37.447266 
L 54.700839 -37.447266 
L 54.43282 -37.447266 
L 54.164801 -37.447266 
L 53.896782 -37.447266 
L 53.628764 -37.447266 
L 53.360745 -37.447266 
L 53.092726 -37.447266 
L 52.824708 -37.447266 
L 52.556689 -37.447266 
L 52.28867 -37.447266 
L 52.020652 -37.447266 
L 51.752633 -37.447266 
L 51.484614 -37.447266 
L 51.216596 -37.447266 
L 50.948577 -37.447266 
L 50.680558 -37.447266 
L 50.41254 -37.447266 
L 50.144521 -37.447266 
L 49.876502 -37.447266 
L 49.608484 -37.447266 
L 49.340465 -37.447266 
L 49.072446 -37.447266 
L 48.804428 -37.447266 
L 48.536409 -37.447266 
L 48.26839 -37.447266 
L 48.000372 -37.447266 
L 47.732353 -37.447266 
L 47.464334 -37.447266 
L 47.196315 -37.447266 
L 46.928297 -37.447266 
L 46.660278 -37.447266 
L 46.392259 -37.447266 
L 46.124241 -37.447266 
L 45.856222 -37.447266 
L 45.588203 -37.447266 
L 45.320185 -37.447266 
L 45.052166 -37.447266 
L 44.784147 -37.447266 
L 44.516129 -37.447266 
L 44.24811 -37.447266 
L 43.980091 -37.447266 
L 43.712073 -37.447266 
L 43.444054 -37.447266 
L 43.176035 -37.447266 
L 42.908017 -37.447266 
L 42.639998 -37.447266 
L 42.371979 -37.447266 
L 42.103961 -37.447266 
L 41.835942 -37.447266 
L 41.567923 -37.447266 
L 41.299905 -37.447266 
L 41.031886 -37.447266 
L 40.763867 -37.447266 
z
"/>
    </defs>
    <g clip-path="url(#p532b9e7fd9)">
     <use xlink:href="#m15ba5df2d7" x="0" y="258.374703" style="fill: #898781; fill-opacity: 0.18"/>
    </g>
   </g>
   <g id="line2d_29">
    <path d="M 40.763867 34.596205 
L 42.908017 36.306241 
L 45.052166 38.327703 
L 47.196315 40.654802 
L 49.608484 43.629736 
L 52.020652 46.972069 
L 54.700839 51.101683 
L 57.381025 55.650847 
L 60.329231 61.114638 
L 63.545455 67.589744 
L 66.761679 74.560153 
L 70.513941 83.256612 
L 74.534221 93.163393 
L 79.090538 105.0006 
L 84.986949 121.00463 
L 103.212219 170.851506 
L 107.2325 180.973177 
L 110.448724 188.522668 
L 113.128911 194.293801 
L 115.27306 198.452435 
L 117.149191 201.65423 
L 118.757303 203.990188 
L 120.097396 205.591609 
L 121.43749 206.836699 
L 122.509564 207.558816 
L 123.581639 208.035399 
L 124.653714 208.277742 
L 125.725788 208.308508 
L 127.065882 208.096095 
L 128.673994 207.559217 
L 130.550125 206.674114 
L 133.49833 205.00484 
L 139.66276 201.250613 
L 142.074928 199.430177 
L 144.219077 198.070829 
L 146.363227 196.95917 
L 148.507376 196.098142 
L 150.651526 195.489722 
L 152.795675 195.134906 
L 154.939824 195.033644 
L 157.083974 195.184789 
L 159.228123 195.585952 
L 161.372273 196.233337 
L 163.516422 197.121452 
L 165.660572 198.242669 
L 167.000665 198.922568 
L 167.268684 198.800083 
L 173.165095 189.062469 
L 176.649338 183.705897 
L 179.865562 179.13932 
L 183.081786 174.957425 
L 186.029991 171.477513 
L 188.978197 168.347842 
L 191.658384 165.814663 
L 194.33857 163.584404 
L 197.018757 161.661142 
L 199.430925 160.19486 
L 201.843093 158.980238 
L 204.255261 158.017199 
L 206.66743 157.303225 
L 209.079598 156.742377 
L 209.883654 156.710154 
L 213.903934 149.460766 
L 217.120158 142.376927 
L 219.800345 136.989957 
L 222.212513 132.626613 
L 224.356662 129.186983 
L 226.232793 126.549424 
L 228.108924 124.284822 
L 229.717036 122.657171 
L 230.789111 121.739268 
L 231.057129 121.786587 
L 235.613447 118.402091 
L 239.901746 115.49302 
L 244.190045 112.86208 
L 248.210325 110.655912 
L 252.230605 108.708065 
L 255.982867 107.127891 
L 259.735128 105.780926 
L 263.48739 104.669954 
L 264.023427 104.50829 
L 266.435595 103.071812 
L 268.847763 101.8804 
L 271.259931 100.938129 
L 273.672099 100.248236 
L 275.816249 99.848333 
L 277.960398 99.650402 
L 280.104548 99.654523 
L 282.248697 99.860279 
L 284.392847 100.26651 
L 286.805015 100.961422 
L 289.217183 101.904852 
L 291.629351 103.092495 
L 294.845575 104.737004 
L 298.597837 105.845027 
L 302.350098 107.176974 
L 306.370378 108.846107 
L 310.390658 110.757835 
L 314.678957 113.05397 
L 318.967256 115.603306 
L 323.523574 118.57315 
L 328.34791 121.989527 
L 333.440265 125.870071 
L 339.068657 130.444116 
L 345.501105 135.966777 
L 351.665535 141.248359 
L 361.582226 146.124036 
L 368.282693 149.17205 
L 373.911085 151.489229 
L 379.00344 153.342811 
L 383.559758 154.773858 
L 387.848057 155.902655 
L 391.064281 156.60376 
L 423.226522 156.526577 
L 428.586896 155.452684 
L 434.483307 154.038202 
L 441.451792 152.126648 
L 442.523867 151.814444 
L 442.523867 151.814444 
" clip-path="url(#p532b9e7fd9)" style="fill: none; stroke: #1baf7a; stroke-width: 1.8; stroke-linecap: square"/>
   </g>
   <g id="line2d_30">
    <path d="M 40.763867 34.599351 
L 42.908017 36.310775 
L 45.052166 38.333778 
L 47.196315 40.662517 
L 49.608484 43.639296 
L 52.020652 46.983334 
L 54.700839 51.114493 
L 57.381025 55.664607 
L 60.329231 61.12847 
L 63.545455 67.60212 
L 67.029698 75.170527 
L 70.781959 83.900543 
L 74.802239 93.832839 
L 79.358557 105.685215 
L 84.986949 120.972942 
L 101.604107 166.605266 
L 106.160425 178.282886 
L 109.644668 186.627431 
L 112.592873 193.117107 
L 115.005041 197.889905 
L 116.881172 201.156807 
L 118.489284 203.561858 
L 119.829378 205.230189 
L 121.169471 206.548585 
L 122.241546 207.331041 
L 123.31362 207.866063 
L 124.385695 208.161588 
L 125.45777 208.237545 
L 126.797863 208.068064 
L 128.137957 207.665311 
L 130.014087 206.827575 
L 132.694274 205.32189 
L 138.054648 202.026467 
L 140.734834 199.607981 
L 143.147003 197.726651 
L 145.559171 196.129955 
L 147.971339 194.821031 
L 150.115488 193.900571 
L 152.259638 193.2092 
L 154.403787 192.746405 
L 156.547937 192.51085 
L 158.692086 192.500381 
L 160.836235 192.712017 
L 162.980385 193.141958 
L 165.124534 193.785576 
L 167.536702 194.758212 
L 169.948871 195.985226 
L 172.361039 197.455998 
L 175.041225 199.361024 
L 177.721412 201.531743 
L 180.669618 204.196782 
L 184.153861 207.659551 
L 186.029991 209.520381 
L 188.710178 211.024689 
L 190.586309 211.855857 
L 192.194421 212.362733 
L 193.802533 212.642859 
L 195.410645 212.680012 
L 197.018757 212.480876 
L 198.090832 212.228963 
L 199.162907 210.641962 
L 203.987243 203.067991 
L 209.347616 193.437455 
L 209.883654 192.283517 
L 213.099878 186.726619 
L 215.780065 182.508301 
L 218.192233 179.098359 
L 220.336382 176.414507 
L 222.480532 174.086991 
L 224.356662 172.361253 
L 226.232793 170.938872 
L 227.840905 169.968423 
L 229.449017 169.232062 
L 231.057129 168.73229 
L 232.665241 168.469925 
L 234.273354 168.444108 
L 235.881466 168.652325 
L 237.489578 169.090427 
L 239.09769 169.75267 
L 239.633727 170.02201 
L 239.901746 170.380561 
L 240.705802 170.758621 
L 244.190045 168.552134 
L 247.674287 166.623181 
L 250.890512 165.091617 
L 254.106736 163.80058 
L 257.32296 162.750549 
L 260.539184 161.931031 
L 262.951352 161.491066 
L 266.167576 161.098791 
L 269.3838 160.941245 
L 280.908604 160.937523 
L 324.059611 160.937494 
L 324.32763 160.811297 
L 327.543854 156.477962 
L 330.492059 152.870759 
L 333.172246 149.917369 
L 335.852433 147.292243 
L 338.264601 145.222586 
L 340.676769 143.439887 
L 343.088937 141.951479 
L 345.501105 140.75274 
L 347.645255 139.871071 
L 349.789404 139.216453 
L 351.933554 138.789353 
L 354.077703 138.589344 
L 354.345722 138.580255 
L 354.61374 138.969751 
L 359.974114 138.96059 
L 365.334488 139.168104 
L 365.870525 139.138843 
L 369.086749 136.704325 
L 372.034955 134.743165 
L 374.98316 133.051628 
L 377.663347 131.754316 
L 380.343534 130.691479 
L 383.02372 129.867034 
L 385.703907 129.282704 
L 388.384094 128.940285 
L 391.064281 128.83884 
L 393.744468 128.977722 
L 396.960692 129.255616 
L 400.444935 128.762829 
L 404.197196 128.465875 
L 407.949458 128.409334 
L 411.4337 128.567406 
L 415.185962 128.960106 
L 418.938223 129.575435 
L 422.958504 130.472933 
L 426.978784 131.603921 
L 430.999064 132.953115 
L 435.555382 134.725777 
L 440.379718 136.853311 
L 442.523867 137.87269 
L 442.523867 137.87269 
" clip-path="url(#p532b9e7fd9)" style="fill: none; stroke: #2a78d6; stroke-width: 1.8; stroke-linecap: square"/>
   </g>
   <g id="line2d_31">
    <path d="M 123.588236 220.927437 
L 123.588236 21.343437 
" clip-path="url(#p532b9e7fd9)" style="fill: none; stroke-dasharray: 0.8,1.32; stroke-dashoffset: 0; stroke: #c3c2b7; stroke-width: 0.8"/>
   </g>
   <g id="line2d_32">
    <path d="M 194.25679 220.927437 
L 194.25679 21.343437 
" clip-path="url(#p532b9e7fd9)" style="fill: none; stroke-dasharray: 0.8,1.32; stroke-dashoffset: 0; stroke: #c3c2b7; stroke-width: 0.8"/>
   </g>
   <g id="patch_3">
    <path d="M 40.763867 220.927437 
L 40.763867 21.343437 
" style="fill: none; stroke: #c3c2b7; stroke-width: 0.8; stroke-linejoin: miter; stroke-linecap: square"/>
   </g>
   <g id="patch_4">
    <path d="M 40.763867 220.927437 
L 442.523867 220.927437 
" style="fill: none; stroke: #c3c2b7; stroke-width: 0.8; stroke-linejoin: miter; stroke-linecap: square"/>
   </g>
   <g id="patch_5">
    <path d="M 285.072142 121.803565 
Q 242.113235 142.294924 200.062529 162.353072 
" style="fill: none; stroke: #898781; stroke-width: 0.9; stroke-linecap: round"/>
    <path d="M 203.86319 162.423657 
L 200.062529 162.353072 
L 202.399393 159.354895 
" style="fill: none; stroke: #898781; stroke-width: 0.9; stroke-linecap: round"/>
   </g>
   <g id="text_17">
    <text style="font-size: 8.5px; font-family: 'Segoe UI', 'Helvetica Neue', 'Arial', sans-serif; fill: #52514e" transform="translate(252.975559 106.929014)">second peak left exposed</text>
    <text style="font-size: 8.5px; font-family: 'Segoe UI', 'Helvetica Neue', 'Arial', sans-serif; fill: #52514e" transform="translate(252.975559 116.383438)">by the single-frequency shaper</text>
   </g>
   <g id="patch_6">
    <path d="M 222.427575 206.217323 
Q 209.31021 209.667911 197.165969 212.862514 
" style="fill: none; stroke: #898781; stroke-width: 0.9; stroke-linecap: round"/>
    <path d="M 200.886586 213.641622 
L 197.165969 212.862514 
L 200.021625 210.353485 
" style="fill: none; stroke: #898781; stroke-width: 0.9; stroke-linecap: round"/>
   </g>
   <g id="text_18">
    <text style="font-size: 8.5px; font-family: 'Segoe UI', 'Helvetica Neue', 'Arial', sans-serif; text-anchor: start; fill: #52514e" x="222.070944" y="201.919438" transform="rotate(-0 222.070944 201.919438)">second notch</text>
   </g>
   <g id="text_19">
    <text style="font-size: 8px; font-family: 'Segoe UI', 'Helvetica Neue', 'Arial', sans-serif; fill: #898781" transform="translate(371.559598 200.865763)">measured PSD</text>
    <text style="font-size: 8px; font-family: 'Segoe UI', 'Helvetica Neue', 'Arial', sans-serif; fill: #898781" transform="translate(375.110848 209.522638)">(normalized)</text>
   </g>
   <g id="text_20">
    <text style="font-weight: 600; font-size: 11px; font-family: 'Segoe UI', 'Helvetica Neue', 'Arial', sans-serif; text-anchor: middle; fill: #0b0b0b" x="241.643867" y="15.343437" transform="rotate(-0 241.643867 15.343437)">Two-mode convolution places an exact notch at each resonance</text>
   </g>
   <g id="legend_1">
    <g id="line2d_33">
     <path d="M 48.413867 32.311094 
L 56.913867 32.311094 
L 65.413867 32.311094 
" style="fill: none; stroke: #1baf7a; stroke-width: 1.8; stroke-linecap: square"/>
    </g>
    <g id="text_21">
     <text style="font-size: 8.5px; font-family: 'Segoe UI', 'Helvetica Neue', 'Arial', sans-serif; text-anchor: start; fill: #0b0b0b" x="72.213867" y="35.286094" transform="rotate(-0 72.213867 35.286094)">single mzv @ 45.2 Hz (3 impulses)</text>
    </g>
    <g id="line2d_34">
     <path d="M 48.413867 44.853906 
L 56.913867 44.853906 
L 65.413867 44.853906 
" style="fill: none; stroke: #2a78d6; stroke-width: 1.8; stroke-linecap: square"/>
    </g>
    <g id="text_22">
     <text style="font-size: 8.5px; font-family: 'Segoe UI', 'Helvetica Neue', 'Arial', sans-serif; text-anchor: start; fill: #0b0b0b" x="72.213867" y="47.828906" transform="rotate(-0 72.213867 47.828906)">two-mode zv×zv @ 45.2 + 79.5 Hz (4 impulses)</text>
    </g>
   </g>
  </g>
 </g>
 <defs>
  <clipPath id="p532b9e7fd9">
   <rect x="40.763867" y="21.343437" width="401.76" height="199.584"/>
  </clipPath>
 </defs>
</svg>
